<svg xmlns="http://www.w3.org/2000/svg" width="150" height="150" viewBox="0 0 150 150">
  <defs>
    <linearGradient id="404-img-a" x1="50%" x2="50%" y1="0%" y2="100%">
      <stop offset="0%" stop-color="#F24458" stop-opacity=".05"/>
      <stop offset="100%" stop-color="#F24458" stop-opacity=".4"/>
    </linearGradient>
  </defs>
  <g fill="none">
    <path fill="url(#404-img-a)" d="M84,75 C75.163444,75 68,67.8813275 68,59.1 C68,52.1324782 72.5098094,46.2116956 78.7868875,44.063052 C79.6649483,37.5903709 85.2460271,32.6 92,32.6 C93.7659756,32.6 95.4517631,32.94118 96.9942573,33.5608291 C100.525848,26.6980343 107.710831,22 116,22 C127.782075,22 137.333333,31.4915633 137.333333,43.2 C137.333333,43.5008887 137.327026,43.8003133 137.314534,44.0981505 C143.538712,46.2756 148,52.1700613 148,59.1 C148,67.8813275 140.836556,75 132,75 L84,75 Z"/>
    <path fill="#F24458" d="M58.8219178,28.5454545 C58.8219178,21.6165122 64.3421849,16 71.1506849,16 C77.9592466,16 83.4794521,21.6165122 83.4794521,28.5454545 L83.4794521,64.9273982 L118,100.054545 L118,112.6 L83.4794521,96.2909091 L83.4794521,131.104545 L83.4794521,131.104545 C82.7387717,138.829954 77.2584719,145.273513 69.7521378,147.244678 L44.0273973,154 L44.0273973,141.454545 L58.8219178,131.104545 L58.8219178,96.2909091 L28,112.6 L28,100.054545 L58.8219178,64.9273982 L58.8219178,28.5454545 Z" transform="rotate(90 73 85)"/>
  </g>
</svg>
