<?xml version="1.0" encoding="utf-8"?>
<!-- Generator: Adobe Illustrator 17.1.0, SVG Export Plug-In . SVG Version: 6.00 Build 0)  -->
<!DOCTYPE svg PUBLIC "-//W3C//DTD SVG 1.1//EN" "http://www.w3.org/Graphics/SVG/1.1/DTD/svg11.dtd">
<svg version="1.1" id="Слой_1" xmlns="http://www.w3.org/2000/svg" xmlns:xlink="http://www.w3.org/1999/xlink" x="0px" y="0px"
	 viewBox="0 0 200 70" enable-background="new 0 0 200 70" xml:space="preserve">
<defs>
	<filter id="Adobe_OpacityMaskFilter" filterUnits="userSpaceOnUse" x="0" y="27.3" width="199.6" height="26.6">
		<feColorMatrix  type="matrix" values="1 0 0 0 0  0 1 0 0 0  0 0 1 0 0  0 0 0 1 0"/>
	</filter>
</defs>
<mask maskUnits="userSpaceOnUse" x="0" y="27.3" width="199.6" height="26.6" id="amadeus-logo-b">
	<g filter="url(#Adobe_OpacityMaskFilter)">
		<polygon id="amadeus-logo-a" fill="#FFFFFF" points="0,53.9 199.6,53.9 199.6,27.3 0,27.3 		"/>
	</g>
</mask>
<g mask="url(#amadeus-logo-b)">
	<path fill="#848484" d="M125.5,52.7c0,0,4.4,1.2,10,1.2c6,0,8.7-0.7,8.7-0.7v-4.4c0,0-3,0.6-7.2,0.6c-3.6,0-5.9-0.5-5.9-0.5v-6.3
		h11.3v-4.4h-11.3v-6c0,0,2.2-0.4,5.5-0.4c3.7,0,7.1,0.6,7.1,0.6v-4.5c0,0-2.9-0.6-7.7-0.6c-6.4,0-10.5,1.1-10.5,1.1V52.7z"/>
	<path fill="#848484" d="M44.6,42.6c-0.1,0.4-0.3,1.1-0.4,1.5c-0.1-0.4-0.3-1.1-0.4-1.5l-5-12.9c-0.8-2.1-2.2-2.4-4.6-2.4
		c-0.8,0-2.6,0.1-2.6,0.1l-2.6,26.1h5.7L35.9,36l5.4,13.3c0.4,1,1.2,1.4,2.8,1.4c1.6,0,2.4-0.4,2.8-1.4L52.4,36l1.3,17.5h5.7
		l-2.6-26.1c0,0-1.7-0.1-2.6-0.1c-2.4,0-3.8,0.3-4.6,2.4L44.6,42.6z"/>
	<path fill="#848484" d="M12.6,27.3c-5.1,0-9.1,1.3-10.6,2l1.2,4.3c0,0,3.9-1.4,7.7-1.4c3.3,0,5,0.9,5,4.2v1.8h-5
		c-8.4,0-11,3.9-11,8.2c0,5.7,4.4,7.5,8.4,7.5c4.7,0,7.4-2,7.7-2c0.3,0,1.2,1,5.5,1V34.9C21.7,29.5,18.3,27.3,12.6,27.3z M16,48
		c-1.2,0.5-4.2,1.4-6.3,1.4c-2.4,0-4.1-0.8-4.1-3.4c0-2.3,1.2-3.6,4.5-3.7l6-0.2V48z"/>
	<path fill="#848484" d="M77.6,27.3c-5.1,0-9.1,1.3-10.6,2l1.2,4.3c0,0,3.9-1.4,7.7-1.4c3.3,0,5,0.9,5,4.2v1.8h-5
		c-8.4,0-11,3.9-11,8.2c0,5.7,4.4,7.5,8.4,7.5c4.7,0,7.4-2,7.7-2c0.3,0,1.2,1,5.5,1V34.9C86.7,29.5,83.4,27.3,77.6,27.3z M81,48
		c-1.2,0.5-4.2,1.4-6.3,1.4c-2.4,0-4.1-0.8-4.1-3.4c0-2.3,1.2-3.6,4.5-3.7l6-0.2V48z"/>
	<path fill="#848484" d="M168.1,47.1c-1.4,0.7-4.3,1.8-7,1.8c-3.9,0-4.6-1.8-4.6-5.8V27.5c0,0-0.4,0-0.8,0c-1.3,0-4.2,0.2-4.9,0.4
		v15.8c0,6.9,1.7,10.2,8.7,10.2c5.3,0,8.5-2.1,8.7-2.1c0.1,0,1.9,1.1,5.6,1.1V27.9c-0.4-0.1-3.2-0.4-4.6-0.4c-0.5,0-1.1,0-1.1,0
		V47.1z"/>
	<path fill="#848484" d="M180.6,53c0,0,3.5,0.9,8.5,0.9c4.7,0,10.6-1.6,10.6-8c0-4.1-3.1-5.9-8-7.7c-2.7-1-5-1.9-5-3.7
		c0-0.9,0.7-2.6,4.1-2.6c3.2,0,6.5,1.5,6.5,1.5l1.4-4.3c-1-0.5-4.1-1.8-8.4-1.8c-4.7,0-9.3,2.5-9.3,7.6c0,5.2,4.7,6.8,8.4,8
		c2.5,0.9,4.6,1.7,4.6,3.4c0,1.6-0.9,3-5.1,3c-3.5,0-7.2-0.8-7.2-0.8L180.6,53z"/>
	<path fill="#848484" d="M105.5,27.3c-3.2,0-7.7,0.6-10.5,1.6v24.3c2.3,0.5,6.6,0.8,9.6,0.8c10.2,0,14.1-4,14.1-13.5
		C118.7,32.2,113.7,27.3,105.5,27.3z M104.8,49.4c-2,0-4-0.3-4-0.3V32.3c0.9-0.2,2.7-0.4,4.5-0.4c4.1,0,7.4,2.3,7.4,8.6
		C112.6,46.5,111.1,49.4,104.8,49.4z"/>
</g>
</svg>
