<svg xmlns="http://www.w3.org/2000/svg" xmlns:xlink="http://www.w3.org/1999/xlink" width="447" height="105" viewBox="0 0 447 105">
  <defs>
    <polygon id="amadeus-logo-a" points="0 0 299.413 0 299.413 39.944 0 39.944"/>
  </defs>
  <g fill="none" fill-rule="evenodd">
    <g transform="matrix(1 0 0 -1 148.5 80.914)">
      <mask id="amadeus-logo-b" fill="#fff">
        <use xlink:href="#amadeus-logo-a"/>
      </mask>
      <g fill="#848484" fill-rule="nonzero" mask="url(#amadeus-logo-b)">
        <path d="M188.262911,1.83106504 C188.262911,1.83106504 194.844484,0 203.250587,0 C212.209507,0 216.356221,0.998654651 216.356221,0.998654651 L216.356221,7.65608939 C216.356221,7.65608939 211.877347,6.7680327 205.627934,6.7680327 C200.153756,6.7680327 196.779343,7.48979215 196.779343,7.48979215 L196.779343,16.9201701 L213.75939,16.9201701 L213.75939,23.5775342 L196.779343,23.5775342 L196.779343,32.5642958 C196.779343,32.5642958 200.097418,33.1750334 205.075704,33.1750334 C210.661972,33.1750334 215.693662,32.2872122 215.693662,32.2872122 L215.693662,39.0000872 C215.693662,39.0000872 211.269366,39.9435371 204.079225,39.9435371 C194.512324,39.9435371 188.262911,38.2224048 188.262911,38.2224048 L188.262911,1.83106504 Z M66.9207746,16.9765051 C66.6989437,16.4209251 66.4237089,15.3668656 66.2576291,14.7563634 C66.0921362,15.3668656 65.8151408,16.4209251 65.5944836,16.9765051 L58.0717723,36.3368001 C56.7999413,39.5542544 54.8099178,39.9435371 51.159507,39.9435371 C49.8869718,39.9435371 47.2869718,39.7768278 47.2869718,39.7768278 L43.4160211,0.554860596 L51.9891432,0.554860596 L53.8688967,26.8501461 L61.9988263,6.93474201 C62.6079812,5.3814375 63.8239437,4.77092943 66.2576291,4.77092943 C68.6901408,4.77092943 69.9078638,5.3814375 70.5158451,6.93474201 L78.6455399,26.8501461 L80.5264085,0.554860596 L89.0980047,0.554860596 L85.2271127,39.7768278 C85.2271127,39.7768278 82.6273474,39.9435371 81.3562207,39.9435371 C77.7059859,39.9435371 75.7153756,39.5542544 74.4424883,36.3368001 L66.9207746,16.9765051 Z M24.0039319,8.93178052 C22.1787559,8.21025654 17.7535211,6.7680327 14.4911972,6.7680327 C10.9512324,6.7680327 8.29688967,7.98833067 8.29688967,11.8721512 C8.29688967,15.2557849 10.1209507,17.1972536 14.989554,17.3639629 L24.0039319,17.6966751 L24.0039319,8.93178052 Z M18.915493,39.9435371 C11.283216,39.9435371 5.31011737,38.056814 2.98699531,36.8914382 L4.81243545,30.4564121 C4.81243545,30.4564121 10.6757042,32.5642958 16.4264085,32.5642958 C21.348885,32.5642958 23.8925469,31.1779949 23.8925469,26.2962144 L23.8925469,23.5216701 L16.4264085,23.5216701 C3.76160211,23.5216701 0,17.6966751 0,11.2611781 C0,2.71865669 6.63744131,0 12.6657277,0 C19.6894366,0 23.7827465,2.93986439 24.2799296,2.93986439 C24.6676056,2.93986439 26.1053991,1.38726628 32.5200117,1.38726628 L32.5200117,28.5703953 C32.5200117,36.7247289 27.4879695,39.9435371 18.915493,39.9435371 Z M121.563967,8.93178052 C119.738263,8.21025654 115.313967,6.7680327 112.051643,6.7680327 C108.51115,6.7680327 105.856221,7.98833067 105.856221,11.8721512 C105.856221,15.2557849 107.681925,17.1972536 112.548709,17.3639629 L121.563967,17.6966751 L121.563967,8.93178052 Z M116.474765,39.9435371 C108.842136,39.9435371 102.869718,38.056814 100.546948,36.8914382 L102.372066,30.4564121 C102.372066,30.4564121 108.235329,32.5642958 113.985915,32.5642958 C118.908451,32.5642958 121.452465,31.1779949 121.452465,26.2962144 L121.452465,23.5216701 L113.985915,23.5216701 C101.321596,23.5216701 97.5598592,17.6966751 97.5598592,11.2611781 C97.5598592,2.71865669 104.197183,0 110.225939,0 C117.249413,0 121.342136,2.93986439 121.839789,2.93986439 C122.227113,2.93986439 123.664906,1.38726628 130.080399,1.38726628 L130.080399,28.5703953 C130.080399,36.7247289 125.047535,39.9435371 116.474765,39.9435371 Z M252.140845,10.3188467 C250.09507,9.32088663 245.670775,7.65608939 241.633803,7.65608939 C235.769366,7.65608939 234.774648,10.3188467 234.774648,16.4209251 L234.774648,39.6105894 C234.774648,39.6105894 234.221244,39.6105894 233.502347,39.6105894 C231.567488,39.6105894 227.253521,39.2778183 226.202465,39.0552449 L226.202465,15.3114135 C226.202465,4.93695 228.747066,0 239.254108,0 C247.274061,0 251.974765,3.10611453 252.305751,3.10611453 C252.417254,3.10611453 255.183099,1.38726628 260.715376,1.38726628 L260.715376,39.0552449 C260.106808,39.1663256 255.956573,39.6105894 253.85446,39.6105894 C253.080986,39.6105894 252.140845,39.6105894 252.140845,39.6105894 L252.140845,10.3188467 Z M270.840962,1.38726628 C270.840962,1.38726628 276.150235,0 283.56162,0 C290.585681,0 299.434272,2.38523219 299.434272,11.9266025 C299.434272,18.1411744 294.843897,20.8036962 287.377347,23.5216701 C283.340376,25.019758 279.910798,26.3513721 279.910798,29.1254455 C279.910798,30.4564121 280.907277,33.0635407 286.049883,33.0635407 C290.861502,33.0635407 295.784624,30.8449884 295.784624,30.8449884 L297.941901,37.2243859 C296.502347,37.9457333 291.801643,39.9435371 285.276408,39.9435371 C278.197183,39.9435371 271.283451,36.1705618 271.283451,28.5703953 C271.283451,20.7473612 278.362676,18.3623939 283.892606,16.5312994 C287.65493,15.2557849 290.806925,13.9236999 290.806925,11.4278874 C290.806925,8.98817442 289.47946,6.87881904 283.119131,6.87881904 C277.920188,6.87881904 272.389671,8.04354724 272.389671,8.04354724 L270.840962,1.38726628 Z M151.096244,32.5093735 C152.478873,32.7864571 155.189554,33.1750334 157.899061,33.1750334 C164.09331,33.1750334 168.961268,29.6798481 168.961268,20.2479397 C168.961268,11.0944688 166.581573,6.7680327 157.125587,6.7680327 C154.083333,6.7680327 151.096244,7.21182558 151.096244,7.21182558 L151.096244,32.5093735 Z M158.286385,39.9435371 C153.419601,39.9435371 146.671948,39.111109 142.524061,37.613492 L142.524061,1.16536984 C145.953638,0.443106497 152.369718,0 156.849178,0 C172.113263,0 178.031103,5.99170422 178.031103,20.2479397 C178.031103,32.5642958 170.508216,39.9435371 158.286385,39.9435371 Z"/>
      </g>
    </g>
    <text fill="#848484" font-family="PragmaticaCondensed, Pragmatica" font-size="69" font-style="condensed">
      <tspan x="0" y="81">AVIT</tspan>
    </text>
  </g>
</svg>
