<svg xmlns="http://www.w3.org/2000/svg" xmlns:xlink="http://www.w3.org/1999/xlink" width="507" height="105" viewBox="0 0 507 105">
  <defs>
    <polygon id="amadeus-logo-2-a" points="0 0 297.39 0 297.39 39.674 0 39.674"/>
  </defs>
  <g fill="none" fill-rule="evenodd">
    <g transform="matrix(1 0 0 -1 1.49 80.368)">
      <mask id="amadeus-logo-2-b" fill="#fff">
        <use xlink:href="#amadeus-logo-2-a"/>
      </mask>
      <g fill="#848484" fill-rule="nonzero" mask="url(#amadeus-logo-2-b)">
        <path d="M186.990864,1.81869298 C186.990864,1.81869298 193.527967,0 201.877272,0 C210.775659,0 214.894354,0.991906985 214.894354,0.991906985 L214.894354,7.60435906 C214.894354,7.60435906 210.445744,6.72230275 204.238556,6.72230275 C198.801366,6.72230275 195.449753,7.43918545 195.449753,7.43918545 L195.449753,16.8058446 L212.315069,16.8058446 L212.315069,23.4182265 L195.449753,23.4182265 L195.449753,32.3442668 C195.449753,32.3442668 198.745408,32.9508778 203.690058,32.9508778 C209.23858,32.9508778 214.236272,32.0690554 214.236272,32.0690554 L214.236272,38.7365731 C214.236272,38.7365731 209.84187,39.6736483 202.700312,39.6736483 C193.198051,39.6736483 186.990864,37.9641453 186.990864,37.9641453 L186.990864,1.81869298 Z M66.4686073,16.861799 C66.2482751,16.3099729 65.9749001,15.2630354 65.8099424,14.6566582 C65.6455677,15.2630354 65.3704439,16.3099729 65.1512776,16.861799 L57.6793955,36.0912812 C56.4161579,39.2869959 54.4395806,39.6736483 50.8138347,39.6736483 C49.5498977,39.6736483 46.9674653,39.5080654 46.9674653,39.5080654 L43.1226696,0.551111538 L51.6378652,0.551111538 L53.5049177,26.6687262 L61.5799153,6.88788564 C62.1849543,5.34507644 63.3927008,4.73869342 65.8099424,4.73869342 C68.2260183,4.73869342 69.4355134,5.34507644 70.0393867,6.88788564 L78.1141511,26.6687262 L79.9823111,0.551111538 L88.4959911,0.551111538 L84.6512538,39.5080654 C84.6512538,39.5080654 82.0690545,39.6736483 80.8065165,39.6736483 C77.1809455,39.6736483 75.2037852,39.2869959 73.9394985,36.0912812 L66.4686073,16.861799 Z M23.8417432,8.87143065 C22.0288994,8.15478183 17.6335649,6.72230275 14.3932837,6.72230275 C10.8772376,6.72230275 8.24082961,7.93435546 8.24082961,11.7919339 C8.24082961,15.1527053 10.0525659,17.081056 14.8882732,17.2466389 L23.8417432,17.577103 L23.8417432,8.87143065 Z M18.7876856,39.6736483 C11.206978,39.6736483 5.2742382,37.7996733 2.9668129,36.6421718 L4.77991899,30.2506255 C4.77991899,30.2506255 10.6035711,32.3442668 16.3154192,32.3442668 C21.2046358,32.3442668 23.7311108,30.9673328 23.7311108,26.1185373 L23.7311108,23.3627399 L16.3154192,23.3627399 C3.73618588,23.3627399 0,17.577103 0,11.185089 C0,2.70028738 6.59259374,0 12.5801485,0 C19.5563999,0 23.6220522,2.92000044 24.115876,2.92000044 C24.5009326,2.92000044 25.9290112,1.37789286 32.3002819,1.37789286 L32.3002819,28.3773521 C32.3002819,36.4765889 27.30224,39.6736483 18.7876856,39.6736483 Z M120.742589,8.87143065 C118.929221,8.15478183 114.534819,6.72230275 111.294537,6.72230275 C107.777967,6.72230275 105.140976,7.93435546 105.140976,11.7919339 C105.140976,15.1527053 106.954344,17.081056 111.788245,17.2466389 L120.742589,17.577103 L120.742589,8.87143065 Z M115.687774,39.6736483 C108.106716,39.6736483 102.174653,37.7996733 99.8675771,36.6421718 L101.680363,30.2506255 C101.680363,30.2506255 107.504009,32.3442668 113.21574,32.3442668 C118.105015,32.3442668 120.63184,30.9673328 120.63184,26.1185373 L120.63184,23.3627399 L113.21574,23.3627399 C100.636991,23.3627399 96.9006709,17.577103 96.9006709,11.185089 C96.9006709,2.70028738 103.493148,0 109.481169,0 C116.457187,0 120.522257,2.92000044 121.016547,2.92000044 C121.401254,2.92000044 122.829332,1.37789286 129.201477,1.37789286 L129.201477,28.3773521 C129.201477,36.4765889 124.202619,39.6736483 115.687774,39.6736483 Z M250.437191,10.2491247 C248.405239,9.25790766 244.010837,7.60435906 240.001142,7.60435906 C234.17633,7.60435906 233.188333,10.2491247 233.188333,16.3099729 L233.188333,39.3429503 C233.188333,39.3429503 232.638668,39.3429503 231.924629,39.3429503 C230.002843,39.3429503 225.718024,39.0124276 224.67407,38.7913581 L224.67407,15.207958 C224.67407,4.90359223 227.201477,0 237.637526,0 C245.60329,0 250.272233,3.08512727 250.600983,3.08512727 C250.711732,3.08512727 253.458888,1.37789286 258.953785,1.37789286 L258.953785,38.7913581 C258.349329,38.9016882 254.227136,39.3429503 252.139227,39.3429503 C251.370979,39.3429503 250.437191,39.3429503 250.437191,39.3429503 L250.437191,10.2491247 Z M269.010956,1.37789286 C269.010956,1.37789286 274.284355,0 281.645663,0 C288.622264,0 297.411068,2.36911576 297.411068,11.8460173 C297.411068,18.0185989 292.851708,20.6631307 285.435609,23.3627399 C281.425914,24.8507056 278.019509,26.1733223 278.019509,28.9286519 C278.019509,30.2506255 279.009255,32.8401384 284.117113,32.8401384 C288.896222,32.8401384 293.78608,30.6365763 293.78608,30.6365763 L295.92878,36.9728698 C294.498953,37.6893432 289.83001,39.6736483 283.348865,39.6736483 C276.317472,39.6736483 269.450454,35.9261661 269.450454,28.3773521 C269.450454,20.6071763 276.481847,18.2383237 281.974412,16.4196014 C285.711315,15.1527053 288.842013,13.8296208 288.842013,11.3506719 C288.842013,8.92744351 287.523518,6.83234053 281.206164,6.83234053 C276.042349,6.83234053 270.549201,7.98919895 270.549201,7.98919895 L269.010956,1.37789286 Z M150.075324,32.2897156 C151.448611,32.564927 154.140976,32.9508778 156.832175,32.9508778 C162.984571,32.9508778 167.819637,29.4793086 167.819637,20.1111293 C167.819637,11.0195061 165.456022,6.72230275 156.063927,6.72230275 C153.04223,6.72230275 150.075324,7.16309703 150.075324,7.16309703 L150.075324,32.2897156 Z M157.216882,39.6736483 C152.382982,39.6736483 145.680922,38.8468448 141.561061,37.3593468 L141.561061,1.15749572 C144.967465,0.440112534 151.340193,0 155.789387,0 C170.950335,0 176.82819,5.95121973 176.82819,20.1111293 C176.82819,32.3442668 169.356133,39.6736483 157.216882,39.6736483 Z"/>
      </g>
    </g>
    <text fill="#848484" font-family="PragmaticaCondensed, Pragmatica" font-size="68.534" font-style="condensed">
      <tspan x="329.26" y="79.919">DE WS</tspan>
    </text>
  </g>
</svg>
