<svg xmlns="http://www.w3.org/2000/svg" xmlns:xlink="http://www.w3.org/1999/xlink" width="30" height="30" viewBox="0 0 30 30">
  <defs>
    <polygon id="arrow-left-red-a" points="0 0 30 0 30 30 0 30"/>
  </defs>
  <g fill="none" fill-rule="evenodd">
    <mask id="arrow-left-red-b" fill="#fff">
      <use xlink:href="#arrow-left-red-a"/>
    </mask>
    <g mask="url(#arrow-left-red-b)">
      <g transform="matrix(-1 0 0 1 26 9)">
        <path fill="#F24458" fill-rule="nonzero" d="M2,1 C2,0.447715 1.552285,0 1,0 C0.447715,0 0,0.447715 0,1 L2,1 Z M0,21 C0,21.5523 0.447715,22 1,22 C1.552285,22 2,21.5523 2,21 L0,21 Z M0,1 L0,21 L2,21 L2,1 L0,1 Z" transform="rotate(90 8.5 13.5)"/>
        <path fill="#F24458" fill-rule="nonzero" d="M0.292893022,6.29289 C-0.0976299781,6.68342 -0.0976299781,7.31658 0.292893022,7.70711 C0.683418022,8.09763 1.31658202,8.09763 1.70710702,7.70711 L0.292893022,6.29289 Z M6.00000002,2 L6.70711002,1.292893 L6.00000002,0.58579 L5.29289002,1.292893 L6.00000002,2 Z M10.29289,7.70711 C10.68342,8.09763 11.3166,8.09763 11.7071,7.70711 C12.0976,7.31658 12.0976,6.68342 11.7071,6.29289 L10.29289,7.70711 Z M1.70710702,7.70711 L6.70711002,2.707107 L5.29289002,1.292893 L0.292893022,6.29289 L1.70710702,7.70711 Z M5.29289002,2.707107 L10.29289,7.70711 L11.7071,6.29289 L6.70711002,1.292893 L5.29289002,2.707107 Z" transform="rotate(90 11.5 11.5)"/>
      </g>
    </g>
  </g>
</svg>
