<svg xmlns="http://www.w3.org/2000/svg" width="30" height="30" viewBox="0 0 30 30">
  <defs>
    <linearGradient id="base-gradient-a" x1="42.653%" x2="61.759%" y1="27.026%" y2="86.723%">
      <stop offset="0%" stop-color="#37A6DE"/>
      <stop offset="100%" stop-color="#1D70B6"/>
    </linearGradient>
  </defs>
  <path fill="url(#base-gradient-a)" d="M22,24 L2,24 C0.895,24 0,23.105 0,22 L0,10 C0,8.895 0.895,8 2,8 L22,8 C23.105,8 24,8.895 24,10 L24,22 C24,23.105 23.105,24 22,24 Z M2,6 C1.44771525,6 1,5.55228475 1,5 C1,4.44771525 1.44771525,4 2,4 L22,4 C22.5522847,4 23,4.44771525 23,5 C23,5.55228475 22.5522847,6 22,6 L2,6 Z M3,2 C2.44771525,2 2,1.55228475 2,1 C2,0.44771525 2.44771525,0 3,0 L21,0 C21.5522847,0 22,0.44771525 22,1 C22,1.55228475 21.5522847,2 21,2 L3,2 Z" transform="translate(3 3)"/>
</svg>
