<svg width="30" height="30" viewBox="0 0 30 30" version="1.1" xmlns="http://www.w3.org/2000/svg" xmlns:xlink="http://www.w3.org/1999/xlink">
<title>calendar-black</title>
<desc>Created using Figma</desc>
<g id="Canvas" transform="translate(-7139 1225)">
<clipPath id="clip-0" clip-rule="evenodd">
<path d="M 7139 -1225L 7169 -1225L 7169 -1195L 7139 -1195L 7139 -1225Z" fill="#FFFFFF"/>
</clipPath>
<g id="calendar-black" clip-path="url(#clip-0)">
<g id="calendar">
<g id="Vector">
<use xlink:href="#path0_fill" transform="translate(7143 -1221)" fill="#181920"/>
</g>
</g>
</g>
</g>
<defs>
<path id="path0_fill" d="M 20 0L 2 0C 0.895 0 0 0.895 0 2L 0 20C 0 21.105 0.895 22 2 22L 20 22C 21.105 22 22 21.105 22 20L 22 2C 22 0.895 21.105 0 20 0ZM 3 19C 2.448 19 2 18.552 2 18C 2 17.448 2.448 17 3 17C 3.552 17 4 17.448 4 18C 4 18.552 3.552 19 3 19ZM 3 15C 2.448 15 2 14.552 2 14C 2 13.448 2.448 13 3 13C 3.552 13 4 13.448 4 14C 4 14.552 3.552 15 3 15ZM 7 19C 6.448 19 6 18.552 6 18C 6 17.448 6.448 17 7 17C 7.552 17 8 17.448 8 18C 8 18.552 7.552 19 7 19ZM 7 15C 6.448 15 6 14.552 6 14C 6 13.448 6.448 13 7 13C 7.552 13 8 13.448 8 14C 8 14.552 7.552 15 7 15ZM 7 11C 6.448 11 6 10.552 6 10C 6 9.448 6.448 9 7 9C 7.552 9 8 9.448 8 10C 8 10.552 7.552 11 7 11ZM 11 19C 10.448 19 10 18.552 10 18C 10 17.448 10.448 17 11 17C 11.552 17 12 17.448 12 18C 12 18.552 11.552 19 11 19ZM 11 15C 10.448 15 10 14.552 10 14C 10 13.448 10.448 13 11 13C 11.552 13 12 13.448 12 14C 12 14.552 11.552 15 11 15ZM 11 11C 10.448 11 10 10.552 10 10C 10 9.448 10.448 9 11 9C 11.552 9 12 9.448 12 10C 12 10.552 11.552 11 11 11ZM 15 19C 14.448 19 14 18.552 14 18C 14 17.448 14.448 17 15 17C 15.552 17 16 17.448 16 18C 16 18.552 15.552 19 15 19ZM 15 15C 14.448 15 14 14.552 14 14C 14 13.448 14.448 13 15 13C 15.552 13 16 13.448 16 14C 16 14.552 15.552 15 15 15ZM 14 10C 14 9.448 14.448 9 15 9C 15.552 9 16 9.448 16 10C 16 10.552 15.552 11 15 11C 14.448 11 14 10.552 14 10ZM 19 15C 18.448 15 18 14.552 18 14C 18 13.448 18.448 13 19 13C 19.552 13 20 13.448 20 14C 20 14.552 19.552 15 19 15ZM 19 11C 18.448 11 18 10.552 18 10C 18 9.448 18.448 9 19 9C 19.552 9 20 9.448 20 10C 20 10.552 19.552 11 19 11ZM 20 6L 2 6L 2 2L 20 2L 20 6Z"/>
</defs>
</svg>
