<svg xmlns="http://www.w3.org/2000/svg" width="30" height="30" viewBox="0 0 30 30">
  <defs>
    <linearGradient id="callcenter-gradient-a" x1="42.653%" x2="61.759%" y1="27.026%" y2="86.723%">
      <stop offset="0%" stop-color="#37A6DE"/>
      <stop offset="100%" stop-color="#1D70B6"/>
    </linearGradient>
  </defs>
  <path fill="url(#callcenter-gradient-a)" d="M22,13.2673596 C22.597909,13.6130456 23,14.2593501 23,15 L23,16 C23,16.7644182 22.5716878,17.4283385 21.9418391,17.7649852 C21.5735936,20.163189 19.5011745,22 17,22 L12,22 C11.9228275,22 11.8476967,21.9912582 11.7755439,21.9747108 C11.6862167,21.9913177 11.5941161,22 11.5,22 C11.324,22 10.676,22 10.5,22 C9.672,22 9,21.328 9,20.5 C9,19.672 9.672,19 10.5,19 C10.676,19 11.324,19 11.5,19 C12.1527097,19 12.7084792,19.4175887 12.9145423,20 L17,20 C18.3060887,20 19.4173766,19.1651322 19.8292602,18 L19,18 L19,15 C19,8.76 16,6 16,6 C13,13 3,8 3,15 L2,15 L2,16 C2,16.8001841 2.24683812,17.3247151 2.65850461,17.6849233 C2.89822112,17.8946753 3.13391849,18.0027032 3.24253563,18.0298575 L3.77509137,18.1629964 L3.9486833,18.6837722 C3.9969652,18.8286179 4.11223473,19.1134015 4.30067719,19.4902864 C4.61963065,20.1281933 5.02420801,20.7669997 5.51822128,21.3598156 C6.90293841,23.0214762 8.69689879,24 11,24 L16.623,24 C15.202,25.147 13.342,26 11,26 C8.05310121,26 5.72206159,24.7285238 3.98177872,22.6401844 C3.12447377,21.6114185 2.55419425,20.5852228 2.22231175,19.7749942 C1.94465733,19.6433397 1.64237769,19.4533487 1.34149539,19.1900767 C0.503161882,18.4565349 0,17.3873159 0,16 L0,14 L0,11 C0,4 6,0 11,0 C15,0 16,2 16,2 C20,2 22,7 22,11 L22,13.2673596 Z" transform="translate(4 2)"/>
</svg>
