<svg xmlns="http://www.w3.org/2000/svg" xmlns:xlink="http://www.w3.org/1999/xlink" width="30" height="30" viewBox="0 0 30 30">
  <defs>
    <linearGradient id="cancel-gradient-a" x1="30.157%" x2="69.254%" y1="0%" y2="100%">
      <stop offset="0%" stop-color="#F24458"/>
      <stop offset="100%" stop-color="#FD9953"/>
    </linearGradient>
    <linearGradient id="cancel-gradient-c" x1="100%" x2="65.214%" y1="0%" y2="80.43%">
      <stop offset="0%" stop-color="#9248AE" stop-opacity=".6"/>
      <stop offset="100%" stop-color="#BB6BD9" stop-opacity="0"/>
    </linearGradient>
    <linearGradient id="cancel-gradient-d" x1="21.144%" x2="0%" y1="38.675%" y2="100%">
      <stop offset="0%" stop-color="#F2C94C" stop-opacity="0"/>
      <stop offset="100%" stop-color="#F2944C" stop-opacity=".3"/>
    </linearGradient>
    <linearGradient id="cancel-gradient-e" x1="80.784%" y1="43.044%" y2="100%">
      <stop offset="0%" stop-color="#E6FF00" stop-opacity="0"/>
      <stop offset="100%" stop-color="#E6FF00" stop-opacity=".3"/>
    </linearGradient>
    <path id="cancel-gradient-b" d="M12,0 C5.373,0 0,5.373 0,12 C0,18.627 5.373,24 12,24 C18.627,24 24,18.627 24,12 C24,5.373 18.627,0 12,0 Z M18,13 L13,13 L13,18 C13,18.553 12.552,19 12,19 C11.448,19 11,18.553 11,18 L11,13 L6,13 C5.448,13 5,12.553 5,12 C5,11.447 5.448,11 6,11 L11,11 L11,6 C11,5.447 11.448,5 12,5 C12.552,5 13,5.447 13,6 L13,11 L18,11 C18.552,11 19,11.447 19,12 C19,12.553 18.552,13 18,13 Z"/>
  </defs>
  <g fill="none" transform="rotate(45 9.879 17.121)">
    <use fill="url(#cancel-gradient-a)" fill-rule="evenodd" xlink:href="#cancel-gradient-b"/>
    <use fill="url(#cancel-gradient-c)" fill-rule="evenodd" style="mix-blend-mode:lighten" xlink:href="#cancel-gradient-b"/>
    <use fill="url(#cancel-gradient-d)" fill-rule="evenodd" style="mix-blend-mode:lighten" xlink:href="#cancel-gradient-b"/>
    <use fill="url(#cancel-gradient-e)" fill-rule="evenodd" style="mix-blend-mode:lighten" xlink:href="#cancel-gradient-b"/>
  </g>
</svg>
