<svg xmlns="http://www.w3.org/2000/svg" width="30" height="30" viewBox="0 0 30 30">
  <path fill="#F24458" d="M15,3 C21.627,3 27,8.373 27,15 C27,21.627 21.627,27 15,27 C8.373,27 3,21.627 3,15 C3,8.373 8.373,3 15,3 Z M21.22025,12.70725 C21.61125,12.31625 21.61125,11.68425 21.22025,11.29325 C20.82925,10.90225 20.19725,10.90225 19.80625,11.29325 L12.95325,18.14625 L10.20725,15.40025 C9.81625,15.00925 9.18425,15.00925 8.79325,15.40025 C8.40225,15.79125 8.40225,16.42325 8.79325,16.81425 L12.24625,20.26725 C12.43325,20.45525 12.68825,20.56025 12.95325,20.56025 C13.21825,20.56025 13.47225,20.45525 13.66025,20.26725 L21.22025,12.70725 Z"/>
</svg>
