<svg xmlns="http://www.w3.org/2000/svg" xmlns:xlink="http://www.w3.org/1999/xlink" width="30" height="30" viewBox="0 0 30 30">
  <defs>
    <linearGradient id="compass-gradient-a" x1="30.157%" x2="69.254%" y1="0%" y2="100%">
      <stop offset="0%" stop-color="#F24458"/>
      <stop offset="100%" stop-color="#FD9953"/>
    </linearGradient>
    <linearGradient id="compass-gradient-c" x1="100%" x2="65.214%" y1="0%" y2="80.43%">
      <stop offset="0%" stop-color="#9248AE" stop-opacity=".6"/>
      <stop offset="100%" stop-color="#BB6BD9" stop-opacity="0"/>
    </linearGradient>
    <linearGradient id="compass-gradient-d" x1="21.144%" x2="0%" y1="38.675%" y2="100%">
      <stop offset="0%" stop-color="#F2C94C" stop-opacity="0"/>
      <stop offset="100%" stop-color="#F2944C" stop-opacity=".3"/>
    </linearGradient>
    <linearGradient id="compass-gradient-e" x1="80.784%" y1="43.044%" y2="100%">
      <stop offset="0%" stop-color="#E6FF00" stop-opacity="0"/>
      <stop offset="100%" stop-color="#E6FF00" stop-opacity=".3"/>
    </linearGradient>
    <path id="compass-gradient-b" d="M12,0 C5.373,0 0,5.373 0,12 C0,18.627 5.373,24 12,24 C18.627,24 24,18.627 24,12 C24,5.373 18.627,0 12,0 Z M14,14 L5,19 L10,10 L19,5 L14,14 Z M12,13 C12.5522847,13 13,12.5522847 13,12 C13,11.4477153 12.5522847,11 12,11 C11.4477153,11 11,11.4477153 11,12 C11,12.5522847 11.4477153,13 12,13 Z"/>
  </defs>
  <g fill="none" transform="translate(3 3)">
    <use fill="url(#compass-gradient-a)" fill-rule="evenodd" xlink:href="#compass-gradient-b"/>
    <use fill="url(#compass-gradient-c)" fill-rule="evenodd" style="mix-blend-mode:lighten" xlink:href="#compass-gradient-b"/>
    <use fill="url(#compass-gradient-d)" fill-rule="evenodd" style="mix-blend-mode:lighten" xlink:href="#compass-gradient-b"/>
    <use fill="url(#compass-gradient-e)" fill-rule="evenodd" style="mix-blend-mode:lighten" xlink:href="#compass-gradient-b"/>
  </g>
</svg>
