<svg xmlns="http://www.w3.org/2000/svg" width="30" height="30" viewBox="0 0 30 30">
  <path fill="#F24458" d="M12,0 C5.373,0 0,5.373 0,12 C0,18.627 5.373,24 12,24 C18.627,24 24,18.627 24,12 C24,5.373 18.627,0 12,0 Z M18,13 L13,13 L13,18 C13,18.553 12.552,19 12,19 C11.448,19 11,18.553 11,18 L11,13 L6,13 C5.448,13 5,12.553 5,12 C5,11.447 5.448,11 6,11 L11,11 L11,6 C11,5.447 11.448,5 12,5 C12.552,5 13,5.447 13,6 L13,11 L18,11 C18.552,11 19,11.447 19,12 C19,12.553 18.552,13 18,13 Z" transform="rotate(45 9.879 17.121)"/>
</svg>
