<svg xmlns="http://www.w3.org/2000/svg" xmlns:xlink="http://www.w3.org/1999/xlink" width="30" height="30" viewBox="0 0 30 30">
  <defs>
    <linearGradient id="econom-gradient-a" x1="30.157%" x2="69.254%" y1="0%" y2="100%">
      <stop offset="0%" stop-color="#F24458"/>
      <stop offset="100%" stop-color="#FD9953"/>
    </linearGradient>
    <linearGradient id="econom-gradient-c" x1="100%" x2="65.214%" y1="0%" y2="80.43%">
      <stop offset="0%" stop-color="#9248AE" stop-opacity=".6"/>
      <stop offset="100%" stop-color="#BB6BD9" stop-opacity="0"/>
    </linearGradient>
    <linearGradient id="econom-gradient-d" x1="21.144%" x2="0%" y1="38.675%" y2="100%">
      <stop offset="0%" stop-color="#F2C94C" stop-opacity="0"/>
      <stop offset="100%" stop-color="#F2944C" stop-opacity=".3"/>
    </linearGradient>
    <linearGradient id="econom-gradient-e" x1="80.784%" y1="43.044%" y2="100%">
      <stop offset="0%" stop-color="#E6FF00" stop-opacity="0"/>
      <stop offset="100%" stop-color="#E6FF00" stop-opacity=".3"/>
    </linearGradient>
    <path id="econom-gradient-b" d="M13,17 L12.5075684,17 C12.2224185,17 12,17.2273639 12,17.5078316 L12,17.9921684 C12,18.2786698 12.2272461,18.5 12.5075684,18.5 L13,18.5 L13,19.4903342 C13,19.7775269 13.2273639,20 13.5078316,20 L13.9921684,20 C14.2786698,20 14.5,19.7718148 14.5,19.4903342 L14.5,18.5 L16.9924316,18.5 C17.2775815,18.5 17.5,18.2726361 17.5,17.9921684 L17.5,17.5078316 C17.5,17.2213302 17.2727539,17 16.9924316,17 L14.5,17 L14.5,15.4921684 L14.5,15.0078316 L14.5,11 L13.5078316,11 C13.2213302,11 13,11.2281852 13,11.5096658 L13,14.5 L12.5059123,14.5 C12.2307129,14.5 12,14.7273639 12,15.0078316 L12,15.4921684 C12,15.7786698 12.2265047,16 12.5059123,16 L13,16 L13,17 Z M15,27 C8.372583,27 3,21.627417 3,15 C3,8.372583 8.372583,3 15,3 C21.627417,3 27,8.372583 27,15 C27,21.627417 21.627417,27 15,27 Z M15.8333333,16 C17.3060927,16 18.5,14.8807119 18.5,13.5 C18.5,12.1192881 17.3060927,11 15.8333333,11 L14.5,11 L14.5,16 L15.8333333,16 Z M14.5,12.5 L15.9975592,12.5 C16.551192,12.5 17,12.9438648 17,13.5 L17,13.5 C17,14.0522847 16.5530501,14.5 15.9975592,14.5 L14.5,14.5 L14.5,12.5 Z"/>
  </defs>
  <g fill="none" fill-rule="evenodd">
    <use fill="url(#econom-gradient-a)" xlink:href="#econom-gradient-b"/>
    <use fill="url(#econom-gradient-c)" style="mix-blend-mode:lighten" xlink:href="#econom-gradient-b"/>
    <use fill="url(#econom-gradient-d)" style="mix-blend-mode:lighten" xlink:href="#econom-gradient-b"/>
    <use fill="url(#econom-gradient-e)" style="mix-blend-mode:lighten" xlink:href="#econom-gradient-b"/>
  </g>
</svg>
