<svg xmlns="http://www.w3.org/2000/svg" width="50" height="50" viewBox="0 0 50 50">
  <g fill="none" fill-rule="evenodd">
    <rect width="50" height="50" fill="none"/>
    <path fill="#181920" d="M5.21114707,14.5776641 L9.4472113,6.10556991 C9.7859959,5.42800345 10.4785213,5 11.2360642,5 L38.7639237,5 C39.5214667,5 40.2139921,5.42800345 40.5527767,6.10556991 L44.7888411,14.5776645 C44.9276973,14.8553759 44.999988,15.1616027 44.9999881,15.4720938 L45,43 C45.0000004,44.1045695 44.1045703,45.0000004 43.0000008,45.0000008 L7,45 C5.8954305,45 5,44.1045695 5,43 L5,15.4720942 C5,15.1616029 5.07229069,14.8553757 5.21114707,14.5776641 Z M19,19 C17.8954305,19 17,19.8954305 17,21 C17,22.1045695 17.8954305,23 19,23 L31,23 C32.1045695,23 33,22.1045695 33,21 C33,19.8954305 32.1045695,19 31,19 L19,19 Z M9,15 L41,15 L38.5527864,10.1055728 C38.2140024,9.42800475 37.5214761,9 36.763932,9 L13.236068,9 C12.4785239,9 11.7859976,9.42800475 11.4472136,10.1055728 L9,15 Z"/>
  </g>
</svg>
