<svg xmlns="http://www.w3.org/2000/svg" width="30" height="30" viewBox="0 0 30 30">
  <g fill="#FFF" transform="translate(2 3)">
    <path d="M0 12L0 12C-6.76353751e-17 11.4477153.44771525 11 1 11L8 11 8 13 1 13C.44771525 13 6.76353751e-17 12.5522847 0 12zM15.5857864 11L8 11 8 2C8 .897 8.897-3.55271368e-15 10-3.55271368e-15L24 0C25.103 0 26 .897 26 2L26 22C26 23.103 25.103 24 24 24L10 24C8.897 24 8 23.103 8 22L8 13 15.5857864 13 13.2928932 15.2928932C12.9023689 15.6834175 12.9023689 16.3165825 13.2928932 16.7071068 13.6834175 17.0976311 14.3165825 17.0976311 14.7071068 16.7071068L18.7071068 12.7071068C19.0976311 12.3165825 19.0976311 11.6834175 18.7071068 11.2928932L14.7071068 7.29289322C14.3165825 6.90236893 13.6834175 6.90236893 13.2928932 7.29289322 12.9023689 7.68341751 12.9023689 8.31658249 13.2928932 8.70710678L15.5857864 11z"/>
  </g>
</svg>
