<svg xmlns="http://www.w3.org/2000/svg" width="50" height="50" viewBox="0 0 50 50">
  <path fill="#F24458" fill-rule="evenodd" d="M25,50 C11.1928813,50 0,38.8071187 0,25 C0,11.1928813 11.1928813,0 25,0 C38.8071187,0 50,11.1928813 50,25 C50,38.8071187 38.8071187,50 25,50 Z M32.0710678,34.8994949 C32.8517137,35.6801408 34.1174348,35.681555 34.8994949,34.8994949 C35.681555,34.1174348 35.6801408,32.8517137 34.8994949,32.0710678 L27.8284271,25 L34.8994949,17.9289322 C35.681555,17.1468721 35.6801408,15.8811509 34.8994949,15.1005051 C34.1188491,14.3198592 32.8531279,14.318445 32.0710678,15.1005051 L25,22.1715729 L17.9289322,15.1005051 C17.1482863,14.3198592 15.8825652,14.318445 15.1005051,15.1005051 C14.318445,15.8825652 14.3198592,17.1482863 15.1005051,17.9289322 L22.1715729,25 L15.1005051,32.0710678 C14.318445,32.8531279 14.3198592,34.1188491 15.1005051,34.8994949 C15.8811509,35.6801408 17.1468721,35.681555 17.9289322,34.8994949 L25,27.8284271 L32.0710678,34.8994949 Z"/>
</svg>
