<svg xmlns="http://www.w3.org/2000/svg" xmlns:xlink="http://www.w3.org/1999/xlink" width="30" height="30" viewBox="0 0 30 30">
  <defs>
    <linearGradient id="fast-gradient-a" x1="30.157%" x2="69.254%" y1="0%" y2="100%">
      <stop offset="0%" stop-color="#F24458"/>
      <stop offset="100%" stop-color="#FD9953"/>
    </linearGradient>
    <linearGradient id="fast-gradient-c" x1="100%" x2="65.214%" y1="0%" y2="80.43%">
      <stop offset="0%" stop-color="#9248AE" stop-opacity=".6"/>
      <stop offset="100%" stop-color="#BB6BD9" stop-opacity="0"/>
    </linearGradient>
    <linearGradient id="fast-gradient-d" x1="21.144%" x2="0%" y1="38.675%" y2="100%">
      <stop offset="0%" stop-color="#F2C94C" stop-opacity="0"/>
      <stop offset="100%" stop-color="#F2944C" stop-opacity=".3"/>
    </linearGradient>
    <linearGradient id="fast-gradient-e" x1="80.784%" y1="43.044%" y2="100%">
      <stop offset="0%" stop-color="#E6FF00" stop-opacity="0"/>
      <stop offset="100%" stop-color="#E6FF00" stop-opacity=".3"/>
    </linearGradient>
    <path id="fast-gradient-b" d="M16.8540054,7.76382917 L14.7391791,6.07196809 L10.1961161,6.98058068 C9.65455638,7.08889263 9.12773127,6.73767589 9.01941932,6.19611614 C8.91110737,5.65455638 9.26232411,5.12773127 9.80388386,5.01941932 L14.8038839,4.01941932 C15.0935554,3.96148501 15.39402,4.03459115 15.624695,4.21913119 L20.624695,8.21913119 C20.8084211,8.36611204 20.9344377,8.57316876 20.9805807,8.80388386 L21.8198039,13 L25,13 C25.5522847,13 26,13.4477153 26,14 C26,14.5522847 25.5522847,15 25,15 L21,15 C20.523319,15 20.1129042,14.6635403 20.0194193,14.1961161 L19.5525323,11.8616812 L16.2867957,15.1274179 L17.8320503,19.4452998 C18.2750868,20.1098545 17.7986954,21 17,21 L9,21 C8.44771525,21 8,20.5522847 8,20 C8,19.4477153 8.44771525,19 9,19 L14.1314829,19 L11.4574878,14.7304651 C11.1585425,14.2531428 11,13.7013078 11,13.1380984 L11,13 C11,12.3717746 11.3008133,11.7815334 11.8091283,11.412368 L16.7928932,7.79289322 C16.8085503,7.77723611 16.8290677,7.76769478 16.8540054,7.76382917 Z M4.5,9 L9.5,9 C9.77614237,9 10,9.22385763 10,9.5 C10,9.77614237 9.77614237,10 9.5,10 L4.5,10 C4.22385763,10 4,9.77614237 4,9.5 C4,9.22385763 4.22385763,9 4.5,9 Z M3.5,15 L8.5,15 C8.77614237,15 9,15.2238576 9,15.5 C9,15.7761424 8.77614237,16 8.5,16 L3.5,16 C3.22385763,16 3,15.7761424 3,15.5 C3,15.2238576 3.22385763,15 3.5,15 Z M2.5,12 L7.5,12 C7.77614237,12 8,12.2238576 8,12.5 C8,12.7761424 7.77614237,13 7.5,13 L2.5,13 C2.22385763,13 2,12.7761424 2,12.5 C2,12.2238576 2.22385763,12 2.5,12 Z M23.5,8 C22.1192881,8 21,6.88071187 21,5.5 C21,4.11928813 22.1192881,3 23.5,3 C24.8807119,3 26,4.11928813 26,5.5 C26,6.88071187 24.8807119,8 23.5,8 Z M11.7474093,27.1643638 C11.3804913,27.5771466 10.7484189,27.6143273 10.3356362,27.2474093 C9.92285339,26.8804913 9.88567266,26.2484189 10.2525907,25.8356362 C11.370656,24.5778126 12.2092051,23.634445 12.7682378,23.0055332 L15.413841,23.0396282 C14.5990784,23.9562361 13.3769345,25.331148 11.7474093,27.1643638 Z"/>
  </defs>
  <g fill="none" fill-rule="evenodd">
    <use fill="url(#fast-gradient-a)" xlink:href="#fast-gradient-b"/>
    <use fill="url(#fast-gradient-c)" style="mix-blend-mode:lighten" xlink:href="#fast-gradient-b"/>
    <use fill="url(#fast-gradient-d)" style="mix-blend-mode:lighten" xlink:href="#fast-gradient-b"/>
    <use fill="url(#fast-gradient-e)" style="mix-blend-mode:lighten" xlink:href="#fast-gradient-b"/>
  </g>
</svg>
