<svg xmlns="http://www.w3.org/2000/svg" width="30" height="30" viewBox="0 0 30 30">
  <path fill="#FFF" fill-rule="evenodd" d="M16.5352493,25.6727763 L16.5352493,17.5001255 L19.590125,17.5001255 L20.1344991,14.5369758 L16.5352493,14.5369758 L16.5352493,12.4591818 C16.5352493,11.8629626 16.9141177,11.4143026 17.2550992,11.4143026 L20.132505,11.4143026 L20.132505,8.26171875 L17.2550992,8.26171875 C14.8742105,8.26171875 13.139392,10.2936498 13.139392,12.7941812 L13.139392,14.5369758 L10.0585937,14.5369758 L10.0585937,17.5001255 L13.139392,17.5001255 L13.139392,25.6213 C8.07171868,24.7397514 4.21875,20.3198967 4.21875,15 C4.21875,9.04560547 9.04560547,4.21875 15,4.21875 C20.9543945,4.21875 25.78125,9.04560547 25.78125,15 C25.78125,20.4331781 21.7624447,24.9275753 16.5352493,25.6727763 Z"/>
</svg>
