<svg xmlns="http://www.w3.org/2000/svg" width="30" height="30" viewBox="0 0 30 30">
  <g fill="#F24458" transform="translate(5 2)">
    <path d="M18,17 L14.672,13.768 C14.239,13.273 14,12.637 14,11.98 L14,10 C14,5.055 17.157,0.465 17.157,0.465 L18,0.999 L18,17 Z"/>
    <circle cx="18" cy="1" r="1"/>
    <path d="M19 1L17 1 16 11 16 24.5C16 25.328 16.672 26 17.5 26 18.328 26 19 25.328 19 24.5L19 1zM8.087.445C8.037.186 7.811 0 7.548 0 7.245 0 7 .245 7 .548L7 6.355C7 6.711 6.711 7 6.355 7 6.026 7 5.75 6.753 5.714 6.426L5.054.487C5.023.21 4.789 0 4.509 0L4.5 0 4.491 0C4.211 0 3.977.21 3.946.488L3.286 6.427C3.25 6.753 2.974 7 2.645 7 2.289 7 2 6.711 2 6.355L2 .548C2 .245 1.755 0 1.452 0 1.189 0 .963.186.913.445.671 1.713 0 5.362 0 7 0 11 3 12 3 12L3 24.5C3 25.328 3.672 26 4.5 26 5.328 26 6 25.328 6 24.5L6 12C6 12 9 11 9 7 9 5.362 8.329 1.713 8.087.445z"/>
  </g>
</svg>
