<?xml version="1.0" encoding="utf-8"?>
<!-- Generator: Adobe Illustrator 17.1.0, SVG Export Plug-In . SVG Version: 6.00 Build 0)  -->
<!DOCTYPE svg PUBLIC "-//W3C//DTD SVG 1.1//EN" "http://www.w3.org/Graphics/SVG/1.1/DTD/svg11.dtd">
<svg version="1.1" id="Слой_1" xmlns="http://www.w3.org/2000/svg" xmlns:xlink="http://www.w3.org/1999/xlink" x="0px" y="0px"
	 viewBox="0 0 200 70" enable-background="new 0 0 200 70" xml:space="preserve">
<path fill="#848484" d="M21.5,38.6v-7.2h18.7v16.9c-1.8,1.7-4.5,3.3-7.9,4.6c-3.5,1.3-6.9,2-10.5,2c-4.5,0-8.4-0.9-11.8-2.8
	c-3.3-1.9-5.9-4.5-7.5-8C0.8,40.7,0,36.9,0,32.9c0-4.4,0.9-8.4,2.8-11.8s4.6-6.1,8.2-7.9c2.8-1.4,6.2-2.1,10.3-2.1
	c5.3,0,9.5,1.1,12.5,3.3s4.9,5.3,5.8,9.2L31,25.1c-0.6-2.1-1.7-3.7-3.4-4.9c-1.7-1.2-3.8-1.8-6.3-1.8c-3.8,0-6.8,1.2-9,3.6
	s-3.4,5.9-3.4,10.6c0,5.1,1.1,8.8,3.4,11.4s5.2,3.8,8.9,3.8c1.8,0,3.6-0.4,5.5-1.1s3.4-1.6,4.7-2.6v-5.4H21.5z M54.3,32.9l-7.5-1.3
	c0.8-3,2.3-5.2,4.3-6.6c2.1-1.4,5.1-2.1,9.2-2.1c3.7,0,6.4,0.4,8.2,1.3c1.8,0.9,3.1,2,3.8,3.3c0.7,1.3,1.1,3.8,1.1,7.3l-0.1,9.5
	c0,2.7,0.1,4.7,0.4,6c0.3,1.3,0.8,2.7,1.5,4.1h-8.2c-0.2-0.5-0.5-1.3-0.8-2.4c-0.1-0.5-0.2-0.8-0.3-1c-1.4,1.4-2.9,2.4-4.5,3
	c-1.6,0.7-3.3,1-5.1,1c-3.2,0-5.7-0.9-7.6-2.6S46,48.5,46,45.9c0-1.7,0.4-3.3,1.3-4.7c0.8-1.4,2-2.4,3.5-3.1
	c1.5-0.7,3.7-1.4,6.6-1.9c3.9-0.7,6.5-1.4,8-2v-0.8c0-1.6-0.4-2.7-1.2-3.4c-0.8-0.7-2.3-1-4.4-1c-1.5,0-2.6,0.3-3.4,0.9
	C55.5,30.4,54.8,31.4,54.3,32.9z M65.4,39.5c-1.1,0.3-2.7,0.8-5,1.2c-2.3,0.5-3.8,1-4.5,1.4c-1.1,0.8-1.6,1.7-1.6,2.9
	c0,1.1,0.4,2.1,1.3,3c0.9,0.8,2,1.2,3.3,1.2c1.5,0,2.9-0.5,4.3-1.5c1-0.7,1.7-1.6,2-2.7c0.2-0.7,0.3-2,0.3-4V39.5z M81.2,54.3V11.7
	h8.2v15.3c2.5-2.9,5.6-4.3,9-4.3c3.8,0,6.9,1.4,9.4,4.1s3.7,6.6,3.7,11.7c0,5.3-1.3,9.3-3.8,12.2s-5.6,4.3-9.2,4.3
	c-1.8,0-3.5-0.4-5.3-1.3c-1.7-0.9-3.2-2.2-4.5-3.9v4.5H81.2z M89.4,38.2c0,3.2,0.5,5.6,1.5,7.1c1.4,2.2,3.3,3.3,5.7,3.3
	c1.8,0,3.4-0.8,4.6-2.3c1.3-1.5,1.9-4,1.9-7.3c0-3.5-0.6-6.1-1.9-7.6c-1.3-1.6-2.9-2.3-5-2.3c-2,0-3.6,0.8-4.9,2.3
	S89.4,35.1,89.4,38.2z M126.2,54.3h-8.2V23.5h7.7v4.4c1.3-2.1,2.5-3.4,3.5-4.1c1-0.7,2.2-1,3.6-1c1.9,0,3.7,0.5,5.4,1.5l-2.6,7.1
	c-1.4-0.9-2.7-1.3-3.9-1.3c-1.2,0-2.1,0.3-2.9,0.9s-1.4,1.8-1.9,3.4s-0.7,5.1-0.7,10.3V54.3z M141.7,19.3v-7.5h8.2v7.5H141.7z
	 M141.7,54.3V23.5h8.2v30.8H141.7z M176.4,44.5l8.2,1.4c-1.1,3-2.7,5.2-5,6.8c-2.3,1.6-5.1,2.3-8.6,2.3c-5.4,0-9.4-1.8-12-5.3
	c-2.1-2.8-3.1-6.3-3.1-10.6c0-5.1,1.3-9.1,4-12s6.1-4.3,10.2-4.3c4.6,0,8.3,1.5,11,4.5c2.7,3,4,7.7,3.8,13.9h-20.7
	c0.1,2.4,0.7,4.3,2,5.6c1.3,1.3,2.9,2,4.8,2c1.3,0,2.4-0.3,3.3-1C175.3,47.1,175.9,46,176.4,44.5z M176.9,36.2
	c-0.1-2.4-0.7-4.2-1.8-5.4c-1.2-1.2-2.6-1.8-4.3-1.8c-1.8,0-3.3,0.6-4.5,1.9s-1.8,3.1-1.7,5.3H176.9z M191.8,54.3V11.7h8.2v42.5
	H191.8z"/>
</svg>
