<svg xmlns="http://www.w3.org/2000/svg" width="30" height="30" viewBox="0 0 30 30">
  <defs>
    <linearGradient id="happy-gradient-a" x1="42.653%" x2="61.759%" y1="27.026%" y2="86.723%">
      <stop offset="0%" stop-color="#37A6DE"/>
      <stop offset="100%" stop-color="#1D70B6"/>
    </linearGradient>
  </defs>
  <path fill="url(#happy-gradient-a)" d="M12,24 C5.372583,24 0,18.627417 0,12 C0,5.372583 5.372583,0 12,0 C18.627417,0 24,5.372583 24,12 C24,18.627417 18.627417,24 12,24 Z M12,22 C17.5228475,22 22,17.5228475 22,12 C22,6.4771525 17.5228475,2 12,2 C6.4771525,2 2,6.4771525 2,12 C2,17.5228475 6.4771525,22 12,22 Z M16.5,13 C15.6715729,13 15,12.3284271 15,11.5 C15,10.6715729 15.6715729,10 16.5,10 C17.3284271,10 18,10.6715729 18,11.5 C18,12.3284271 17.3284271,13 16.5,13 Z M7.5,13 C6.67157288,13 6,12.3284271 6,11.5 C6,10.6715729 6.67157288,10 7.5,10 C8.32842712,10 9,10.6715729 9,11.5 C9,12.3284271 8.32842712,13 7.5,13 Z M8.47410798,17.8089394 C8.02734308,17.4842556 7.92837679,16.8588729 8.25306059,16.412108 C8.57774438,15.9653431 9.20312711,15.8663768 9.64989202,16.1910606 C10.350747,16.7004029 11.1372893,17 12,17 C12.8627556,17 13.6494615,16.7002644 14.3485484,16.1914675 C14.7950886,15.8664747 15.4205396,15.9650083 15.7455325,16.4115484 C16.0705253,16.8580886 15.9719917,17.4835396 15.5254516,17.8085325 C14.5074047,18.549469 13.3249111,19 12,19 C10.6753773,19 9.49362014,18.549864 8.47410798,17.8089394 Z" transform="translate(3 3)"/>
</svg>
