<svg xmlns="http://www.w3.org/2000/svg" width="30" height="30" viewBox="0 0 30 30">
  <path fill="#F24458" fill-rule="evenodd" d="M12,27 L6,27 L6,9 C5.44771525,9 5,8.55228475 5,8 C5,7.44771525 5.44771525,7 6,7 L24,7 C24.5522847,7 25,7.44771525 25,8 C25,8.55228475 24.5522847,9 24,9 L24,27 L18,27 L18,22 L12,22 L12,27 Z M9,3 L21,3 C21.5522847,3 22,3.44771525 22,4 C22,4.55228475 21.5522847,5 21,5 L9,5 C8.44771525,5 8,4.55228475 8,4 C8,3.44771525 8.44771525,3 9,3 Z M8,10 L8,12 L10,12 L10,10 L8,10 Z M12,10 L12,12 L14,12 L14,10 L12,10 Z M16,10 L16,12 L18,12 L18,10 L16,10 Z M20,10 L20,12 L22,12 L22,10 L20,10 Z M8,14 L8,16 L10,16 L10,14 L8,14 Z M12,14 L12,16 L14,16 L14,14 L12,14 Z M16,14 L16,16 L18,16 L18,14 L16,14 Z M20,14 L20,16 L22,16 L22,14 L20,14 Z M8,18 L8,20 L10,20 L10,18 L8,18 Z M12,18 L12,20 L14,20 L14,18 L12,18 Z M16,18 L16,20 L18,20 L18,18 L16,18 Z M20,18 L20,20 L22,20 L22,18 L20,18 Z M8,22 L8,24 L10,24 L10,22 L8,22 Z M20,22 L20,24 L22,24 L22,22 L20,22 Z"/>
</svg>
