<svg xmlns="http://www.w3.org/2000/svg" width="78" height="50" viewBox="0 0 78 50">
  <path fill="#FFF" d="M11.1069124,49.8392857 L14.2880184,34.0714286 L19.4640553,34.0714286 L16.3009217,49.8392857 L11.1069124,49.8392857 Z M26.7248848,44.6785714 L30.0138249,44.6785714 L29.1691244,38.8928571 L26.7248848,44.6785714 Z M19.4640553,49.8392857 L27.3,34.0714286 L32.4041475,34.0714286 L35.6211982,49.8392857 L30.8225806,49.8392857 L30.535023,47.9642857 L25.4308756,47.9642857 L24.6221198,49.8392857 L19.4640553,49.8392857 Z M40.383871,49.8392857 L42.1631336,37.9821429 L37.6341014,37.9821429 L38.4069124,34 L52.3175115,34 L51.5447005,37.9821429 L47.2313364,37.9821429 L45.4880184,49.8392857 L40.383871,49.8392857 Z M57.781106,44.6785714 L61.0700461,44.6785714 L60.2253456,38.8928571 L57.781106,44.6785714 Z M50.5382488,49.8392857 L58.3562212,34.0714286 L63.4603687,34.0714286 L66.6774194,49.8392857 L61.8428571,49.8392857 L61.6092166,47.9642857 L56.5050691,47.9642857 L55.6963134,49.8392857 L50.5382488,49.8392857 Z M77.9820276,16.25 L53.6294931,16.25 C52.7308756,20.6785714 49.6396313,24.375 43.4751152,26.9285714 C44.1760369,29.0357143 46.5663594,30.9821429 49.0465438,30.9821429 L62.2562212,30.9821429 C64.2691244,30.9821429 65.8686636,29.3035714 66.5156682,27.9464286 L53.0903226,27.9464286 C52.2635945,27.8035714 52.2276498,27.1428571 53.0543779,27.0714286 L66.2460829,27.0714286 C67.9534562,27.0714286 69.4990783,25.625 70.3976959,24.0535714 L55.0313364,24.0535714 C54.2585253,23.9285714 54.2585253,23.2857143 55.0313364,23.1607143 L70.5235023,23.1607143 C72.0870968,23.1607143 73.5069124,21.3571429 74.1,20.1428571 L57.0981567,20.1428571 C56.2534562,20.0357143 56.2534562,19.25 57.0981567,19.2321429 L74.40553,19.2321429 C75.7534562,19.2321429 77.0654378,17.7678571 77.9820276,16.25 Z M0,16.25 L24.3525346,16.25 C25.2331797,20.6785714 28.3423963,24.375 34.4889401,26.9285714 C33.7880184,29.0357143 31.3976959,30.9821429 28.9175115,30.9821429 L15.7258065,30.9821429 C13.7129032,30.9821429 12.1133641,29.3035714 11.4663594,27.9464286 L24.8917051,27.9464286 C25.7004608,27.8035714 25.7543779,27.1428571 24.9276498,27.0714286 L11.7179724,27.0714286 C10.0105991,27.0714286 8.46497696,25.625 7.5843318,24.0535714 L22.9686636,24.0535714 C23.7414747,23.9285714 23.7414747,23.2857143 22.9686636,23.1607143 L7.4764977,23.1607143 C5.91290323,23.1607143 4.49308756,21.3571429 3.9,20.1428571 L20.9018433,20.1428571 C21.7465438,20.0357143 21.7465438,19.25 20.9018433,19.2321429 L3.59447005,19.2321429 C2.22857143,19.2321429 0.916589862,17.7678571 0,16.25 Z M31.0921659,2.96428571 C31.9907834,3.73214286 32.997235,4.41071429 34.075576,4.83928571 C34.9921659,3.05357143 36.2682028,1.51785714 37.7419355,0.160714286 C35.3156682,0.482142857 33.0331797,1.39285714 31.0921659,2.96428571 Z M26.7788018,11.7678571 L32.2064516,11.7678571 C32.3322581,9.55357143 32.7995392,7.60714286 33.6801843,5.60714286 C32.4760369,5.07142857 31.4336406,4.42857143 30.4271889,3.57142857 C28.1806452,5.80357143 26.940553,8.67857143 26.7788018,11.7678571 Z M38.5686636,6.71428571 L38.5686636,11.7678571 L33.1410138,11.7678571 C33.1769585,9.78571429 33.6442396,7.75 34.4889401,5.91071429 C35.7829493,6.375 37.1847926,6.67857143 38.5686636,6.71428571 Z M46.8898618,2.96428571 C46.0092166,3.73214286 44.9668203,4.41071429 43.9064516,4.83928571 C42.9359447,3.01785714 41.7317972,1.55357143 40.2221198,0.178571429 C42.6663594,0.482142857 44.9488479,1.39285714 46.8898618,2.96428571 Z M51.1852535,11.7678571 L45.775576,11.7678571 C45.7036866,9.58928571 45.2004608,7.55357143 44.337788,5.60714286 C45.4880184,5.07142857 46.5843318,4.39285714 47.5368664,3.57142857 C49.8732719,5.89285714 51.0774194,8.75 51.1852535,11.7678571 Z M39.4493088,6.71428571 L39.4493088,11.7678571 L44.8410138,11.7678571 C44.8410138,9.73214286 44.337788,7.78571429 43.4930876,5.91071429 C42.1990783,6.375 40.8152074,6.67857143 39.4493088,6.71428571 Z M31.0921659,21.4642857 C31.9907834,20.7678571 33.0331797,20 34.075576,19.625 C35.0460829,21.4285714 36.2502304,22.9107143 37.7419355,24.25 C35.3156682,23.9285714 32.997235,23.0178571 31.0921659,21.4642857 Z M26.7788018,12.6428571 L32.2064516,12.6428571 C32.3322581,14.875 32.7995392,16.8392857 33.6801843,18.8571429 C32.4760369,19.3928571 31.4336406,20.0357143 30.4271889,20.875 C28.2165899,18.6607143 26.940553,15.7857143 26.7788018,12.6428571 Z M38.5686636,17.7142857 L38.5686636,12.6428571 L33.1410138,12.6428571 C33.1769585,14.6785714 33.6442396,16.6964286 34.4889401,18.5 C35.7829493,18.0357143 37.1847926,17.75 38.5686636,17.7142857 Z M46.8898618,21.4642857 C46.0451613,20.7321429 44.9668203,20.0535714 43.9064516,19.625 C42.9359447,21.4285714 41.7317972,22.9107143 40.2221198,24.25 C42.6663594,23.9285714 44.9488479,23.0178571 46.8898618,21.4642857 Z M51.1852535,12.6428571 L45.775576,12.6428571 C45.7036866,14.875 45.2184332,16.8571429 44.337788,18.8571429 C45.4880184,19.3928571 46.5304147,20.0357143 47.5368664,20.875 C49.7654378,18.6607143 51.0774194,15.7142857 51.1852535,12.6428571 Z M39.4493088,17.7142857 L39.4493088,12.6428571 L44.8410138,12.6428571 C44.8410138,14.6785714 44.337788,16.6607143 43.4930876,18.5 C42.235023,18.0357143 40.7792627,17.75 39.4493088,17.7142857 Z M38.5686636,0.678571429 C37.0949309,1.85714286 35.7829493,3.46428571 34.9202765,5.14285714 C36.0884793,5.53571429 37.3285714,5.85714286 38.5686636,5.85714286 L38.5686636,0.678571429 Z M39.4493088,0.678571429 C40.8870968,1.85714286 42.1990783,3.41071429 43.0617512,5.14285714 C41.8935484,5.57142857 40.6534562,5.85714286 39.4493088,5.85714286 L39.4493088,0.678571429 Z M38.5686636,23.75 C37.0949309,22.5892857 35.7829493,20.9821429 34.9202765,19.2678571 C36.0884793,18.8571429 37.3285714,18.625 38.5686636,18.625 L38.5686636,23.75 Z M39.4493088,23.7857143 C40.8870968,22.5892857 42.1990783,20.9821429 43.0617512,19.2678571 C41.8935484,18.8928571 40.6534562,18.625 39.4493088,18.625 L39.4493088,23.7857143 Z"/>
</svg>
