<svg xmlns="http://www.w3.org/2000/svg" width="30" height="30" viewBox="0 0 30 30">
  <path fill="#FFF" fill-rule="evenodd" d="M5.86965217,0.122727109 C4.24176918,0.196177122 2.83080519,0.594197194 1.6914862,1.7287074 C0.548187206,2.86917761 0.155147209,4.28557786 0.0815142094,5.89652816 C0.0357422097,6.90200834 -0.231922788,14.4981797 0.544207206,16.4902801 C1.0675972,17.8342203 2.09845719,18.8674905 3.45469418,19.3925606 C4.08753818,19.6387207 4.80993617,19.8054707 5.86965217,19.8541107 C14.7304671,20.2551108 18.0150891,20.0367407 19.4001821,16.4902801 C19.6459561,15.859 19.8151131,15.1373998 19.8618801,14.0803096 C20.2668601,5.19676803 19.7962071,3.27116768 18.2519081,1.7287074 C17.0270161,0.506847178 15.5862001,-0.324922973 5.86965217,0.122727109 M5.95124517,18.0674804 C4.98108317,18.0238004 4.45470718,17.8620103 4.10345918,17.7260303 C3.21986519,17.3826002 2.55617419,16.7215501 2.21487619,15.84312 C1.6238232,14.3294397 1.8198462,7.14022838 1.8725832,5.97692817 C1.9243252,4.83744796 2.15517419,3.79623778 2.95916519,2.99225763 C3.95420318,1.99967745 5.23979217,1.51331736 13.9931441,1.90836743 C15.1354481,1.95997744 16.1792431,2.19025748 16.9852241,2.99225763 C17.9802621,3.98482781 18.4738011,5.28013805 18.0718061,13.9999096 C18.0280241,14.9676698 17.8658331,15.4927399 17.7295131,15.84312 C16.8290031,18.1508504 14.7573331,18.4714504 5.95124517,18.0674804 M14.0896631,4.68955794 C14.0896631,5.34664806 14.6239981,5.88064815 15.2837091,5.88064815 C15.9434191,5.88064815 16.4787501,5.34664806 16.4787501,4.68955794 C16.4787501,4.03247782 15.9434191,3.49846772 15.2837091,3.49846772 C14.6239981,3.49846772 14.0896631,4.03247782 14.0896631,4.68955794 M4.86267317,9.9879189 C4.86267317,12.8028594 7.15026616,15.0847898 9.97219414,15.0847898 C12.7941231,15.0847898 15.0817161,12.8028594 15.0817161,9.9879189 C15.0817161,7.17297839 12.7941231,4.89204797 9.97219414,4.89204797 C7.15026616,4.89204797 4.86267317,7.17297839 4.86267317,9.9879189 M6.65573216,9.9879189 C6.65573216,8.16158857 8.14032915,6.6796683 9.97219414,6.6796683 C11.8040601,6.6796683 13.2886571,8.16158857 13.2886571,9.9879189 C13.2886571,11.8152492 11.8040601,13.2971595 9.97219414,13.2971595 C8.14032915,13.2971595 6.65573216,11.8152492 6.65573216,9.9879189" transform="translate(5 5)"/>
</svg>
