<svg xmlns="http://www.w3.org/2000/svg" width="30" height="30" viewBox="0 0 30 30">
  <g fill="none" fill-rule="evenodd">
    <path stroke="#F24458" stroke-width="2" d="M26.5437329,13.7851045 C28.1754158,14.0728142 29.2649214,15.6287894 28.9772116,17.2604723 C28.6895019,18.8921552 27.1335267,19.9816607 25.5018438,19.693951 M4.49815616,19.693951 C2.86647325,19.9816607 1.31049809,18.8921552 1.02278837,17.2604723 C0.735078649,15.6287894 1.82458419,14.0728142 3.4562671,13.7851045 M15,26 C8.92486775,26 4,21.0751322 4,15 C4,8.92486775 8.92486775,4 15,4 C21.0751322,4 26,8.92486775 26,15 C26,21.0751322 21.0751322,26 15,26 Z"/>
    <path stroke="#F24458" stroke-linecap="round" stroke-linejoin="round" stroke-width="2" d="M14.2890005,8.26951154 C16.2219972,8.26951154 17.7890005,6.70250817 16.4229751,4.40348614" transform="rotate(30 15.614 6.336)"/>
    <path stroke="#F24458" stroke-linecap="round" stroke-linejoin="round" stroke-width="2" d="M12,16 C12,19.3137085 14.6862915,22 18,22" transform="rotate(-45 15 19)"/>
    <circle cx="10.5" cy="14.5" r="1.5" fill="#F24458"/>
    <circle cx="19.5" cy="14.5" r="1.5" fill="#F24458"/>
  </g>
</svg>
