<svg xmlns="http://www.w3.org/2000/svg" width="30" height="30" viewBox="0 0 30 30">
  <path fill="#F24458" fill-rule="evenodd" d="M14,5 L14,26 L8.5638852,26 C7.67236646,26 7.34908022,25.9071744 7.0231543,25.7328673 C6.69722837,25.5585602 6.4414398,25.3027716 6.2671327,24.9768457 C6.09282561,24.6509198 6,24.3276335 6,23.4361148 L6,7.5638852 C6,6.67236646 6.09282561,6.34908022 6.2671327,6.0231543 C6.4414398,5.69722837 6.69722837,5.4414398 7.0231543,5.2671327 C7.34908022,5.09282561 7.67236646,5 8.5638852,5 L14,5 Z M16,5 L21.4361148,5 C22.3276335,5 22.6509198,5.09282561 22.9768457,5.2671327 C23.3027716,5.4414398 23.5585602,5.69722837 23.7328673,6.0231543 C23.9071744,6.34908022 24,6.67236646 24,7.5638852 L24,23.4361148 C24,24.3276335 23.9071744,24.6509198 23.7328673,24.9768457 C23.5585602,25.3027716 23.3027716,25.5585602 22.9768457,25.7328673 C22.6509198,25.9071744 22.3276335,26 21.4361148,26 L16,26 L16,5 Z"/>
</svg>
