<svg xmlns="http://www.w3.org/2000/svg" width="100" height="30" viewBox="0 0 100 30">
  <path fill="#FFF" d="M3.57755237,27.5 L0,27.5 L0.29896297,26.903372 C1.23864602,25.0269876 3.08316127,23.7687313 5.17590206,23.5767304 C7.17754034,23.3931045 9.95848418,22.2327237 10.932402,20.4777149 L12.3850212,17.8614518 L1,17.8614518 C2.86224243,14.5151351 6.39538198,12.4397747 10.2299261,12.4397747 L15.3948473,12.4397747 L17.4025832,8.82281911 C19.5687094,4.9209746 23.6851003,2.5 28.1535806,2.5 L20.1714684,17.5319502 C16.9146414,23.6651058 10.5307296,27.5 3.57755237,27.5 Z M37.831053,2.60543878 L23.625773,27.5 L31.3987852,27.5 L33.6003457,23.3452292 L41.4424736,23.3452292 L41.9236541,27.5 L49.5596869,27.5 L45.7074883,2.60543878 L37.831053,2.60543878 Z M36.420692,17.9884524 L40.1011031,11.0867679 L40.8573691,17.9884524 L36.420692,17.9884524 Z M60.3119364,19.0185826 L59.2457766,2.60543878 L51.6102446,2.60543878 L54.4995814,27.5 L62.5134969,27.5 L76.0994901,2.60543878 L68.2573622,2.60543878 L60.3119364,19.0185826 Z M80.0165473,27.5 L84.0063513,8.75185626 L76.6118478,8.75185626 L77.9189108,2.60543878 L100,2.60543878 L98.6934378,8.75185626 L91.1950103,8.75185626 L87.2050811,27.5 L80.0165473,27.5 Z"/>
</svg>
