<svg xmlns="http://www.w3.org/2000/svg" xmlns:xlink="http://www.w3.org/1999/xlink" width="30" height="30" viewBox="0 0 30 30">
  <defs>
    <linearGradient id="meeting-gradient-a" x1="30.157%" x2="69.254%" y1="0%" y2="100%">
      <stop offset="0%" stop-color="#F24458"/>
      <stop offset="100%" stop-color="#FD9953"/>
    </linearGradient>
    <linearGradient id="meeting-gradient-c" x1="100%" x2="65.214%" y1="0%" y2="80.43%">
      <stop offset="0%" stop-color="#9248AE" stop-opacity=".6"/>
      <stop offset="100%" stop-color="#BB6BD9" stop-opacity="0"/>
    </linearGradient>
    <linearGradient id="meeting-gradient-d" x1="21.144%" x2="0%" y1="38.675%" y2="100%">
      <stop offset="0%" stop-color="#F2C94C" stop-opacity="0"/>
      <stop offset="100%" stop-color="#F2944C" stop-opacity=".3"/>
    </linearGradient>
    <linearGradient id="meeting-gradient-e" x1="80.784%" y1="43.044%" y2="100%">
      <stop offset="0%" stop-color="#E6FF00" stop-opacity="0"/>
      <stop offset="100%" stop-color="#E6FF00" stop-opacity=".3"/>
    </linearGradient>
    <path id="meeting-gradient-b" d="M23,13.12247 L23,23.967 C23,24.537 22.537,25 21.967,25 C21.423,25 20.972,24.578 20.936,24.036 L20.498,17.466 C20.48,17.204 20.263,17 20,17 C19.737,17 19.52,17.204 19.502,17.465 L19.064,24.035 C19.028,24.578 18.577,25 18.033,25 C17.463,25 17,24.537 17,23.967 L17,12.6831296 L16.5176549,13.505793 C16.4508605,13.6197141 16.3621633,13.7192771 16.2566834,13.7987347 L13.6016834,15.7987347 C13.1605544,16.1310352 12.5335659,16.0428124 12.2012653,15.6016834 C11.8689648,15.1605544 11.9571876,14.5335659 12.3983166,14.2012653 L14.8935294,12.3216324 L16.5578356,9.48307703 C17.0952403,8.56438526 18.0808456,8 19.146,8 L21.439,8 C22.8159018,8 24.0161271,8.93740225 24.3491513,10.2724996 L25.9701513,16.7574996 C26.1040806,17.2932993 25.7783002,17.836222 25.2425004,17.9701513 C24.7067007,18.1040806 24.163778,17.7783002 24.0298487,17.2425004 L23,13.12247 Z M20,6 C18.3431458,6 17,4.65685425 17,3 C17,1.34314575 18.3431458,0 20,0 C21.6568542,0 23,1.34314575 23,3 C23,4.65685425 21.6568542,6 20,6 Z M6,6 C4.34314575,6 3,4.65685425 3,3 C3,1.34314575 4.34314575,0 6,0 C7.65685425,0 9,1.34314575 9,3 C9,4.65685425 7.65685425,6 6,6 Z M9,12.6831294 L9,23.967 C9,24.537 8.537,25 7.967,25 C7.423,25 6.972,24.578 6.936,24.035 L6.498,17.465 C6.48,17.204 6.263,17 6,17 C5.737,17 5.52,17.204 5.502,17.466 L5.064,24.036 C5.028,24.578 4.577,25 4.033,25 C3.463,25 3,24.537 3,23.967 L3,13.1250104 L1.9701161,17.2426412 C1.83610905,17.7784215 1.29313911,18.1041231 0.757358781,17.9701161 C0.221578456,17.8361091 -0.104123141,17.2931391 0.0298839045,16.7573588 L1.65172938,10.2729774 C1.98487285,8.93740225 3.18509816,8 4.562,8 L6.854,8 C7.9191544,8 8.90475974,8.56438526 9.44165488,9.482207 L11.1064707,12.3216324 L13.6016834,14.2012653 C14.0428124,14.5335659 14.1310352,15.1605544 13.7987347,15.6016834 C13.4664341,16.0428124 12.8394456,16.1310352 12.3983166,15.7987347 L9.74331662,13.7987347 C9.63783671,13.7192771 9.54913951,13.6197141 9.48234512,13.505793 L9,12.6831294 Z"/>
  </defs>
  <g fill="none" transform="translate(2 3)">
    <use fill="url(#meeting-gradient-a)" fill-rule="evenodd" xlink:href="#meeting-gradient-b"/>
    <use fill="url(#meeting-gradient-c)" fill-rule="evenodd" style="mix-blend-mode:lighten" xlink:href="#meeting-gradient-b"/>
    <use fill="url(#meeting-gradient-d)" fill-rule="evenodd" style="mix-blend-mode:lighten" xlink:href="#meeting-gradient-b"/>
    <use fill="url(#meeting-gradient-e)" fill-rule="evenodd" style="mix-blend-mode:lighten" xlink:href="#meeting-gradient-b"/>
  </g>
</svg>
