<svg xmlns="http://www.w3.org/2000/svg" xmlns:xlink="http://www.w3.org/1999/xlink" width="30" height="30" viewBox="0 0 30 30">
  <defs>
    <linearGradient id="microbus-gradient-a" x1="30.157%" x2="69.254%" y1="0%" y2="100%">
      <stop offset="0%" stop-color="#F24458"/>
      <stop offset="100%" stop-color="#FD9953"/>
    </linearGradient>
    <linearGradient id="microbus-gradient-c" x1="100%" x2="65.214%" y1="0%" y2="80.43%">
      <stop offset="0%" stop-color="#9248AE" stop-opacity=".6"/>
      <stop offset="100%" stop-color="#BB6BD9" stop-opacity="0"/>
    </linearGradient>
    <linearGradient id="microbus-gradient-d" x1="21.144%" x2="0%" y1="38.675%" y2="100%">
      <stop offset="0%" stop-color="#F2C94C" stop-opacity="0"/>
      <stop offset="100%" stop-color="#F2944C" stop-opacity=".3"/>
    </linearGradient>
    <linearGradient id="microbus-gradient-e" x1="80.784%" y1="43.044%" y2="100%">
      <stop offset="0%" stop-color="#E6FF00" stop-opacity="0"/>
      <stop offset="100%" stop-color="#E6FF00" stop-opacity=".3"/>
    </linearGradient>
    <path id="microbus-gradient-b" d="M19.0354444,21 L11.9645556,21 C11.7219407,22.6961471 10.263236,24 8.5,24 C6.73676405,24 5.27805926,22.6961471 5.03544443,21 L3,21 L3,9 C3,7.8954305 3.8954305,7 5,7 L22,7 C23.1045695,7 24,7.8954305 24,9 L20,9 C19.4477153,9 19,9.44771525 19,10 L19,14 C19,14.5522847 19.4477153,15 20,15 L25,15 C26.1045695,15 27,15.8954305 27,17 L27,21 L25.9645556,21 C25.7219407,22.6961471 24.263236,24 22.5,24 C20.736764,24 19.2780593,22.6961471 19.0354444,21 Z M13,9 C12.4477153,9 12,9.44771525 12,10 L12,14 C12,14.5522847 12.4477153,15 13,15 L16,15 C16.5522847,15 17,14.5522847 17,14 L17,10 C17,9.44771525 16.5522847,9 16,9 L13,9 Z M6,9 C5.44771525,9 5,9.44771525 5,10 L5,14 C5,14.5522847 5.44771525,15 6,15 L9,15 C9.55228475,15 10,14.5522847 10,14 L10,10 C10,9.44771525 9.55228475,9 9,9 L6,9 Z M8.5,22 C9.32842712,22 10,21.3284271 10,20.5 C10,19.6715729 9.32842712,19 8.5,19 C7.67157288,19 7,19.6715729 7,20.5 C7,21.3284271 7.67157288,22 8.5,22 Z M22.5,22 C23.3284271,22 24,21.3284271 24,20.5 C24,19.6715729 23.3284271,19 22.5,19 C21.6715729,19 21,19.6715729 21,20.5 C21,21.3284271 21.6715729,22 22.5,22 Z"/>
  </defs>
  <g fill="none" fill-rule="evenodd">
    <use fill="url(#microbus-gradient-a)" xlink:href="#microbus-gradient-b"/>
    <use fill="url(#microbus-gradient-c)" style="mix-blend-mode:lighten" xlink:href="#microbus-gradient-b"/>
    <use fill="url(#microbus-gradient-d)" style="mix-blend-mode:lighten" xlink:href="#microbus-gradient-b"/>
    <use fill="url(#microbus-gradient-e)" style="mix-blend-mode:lighten" xlink:href="#microbus-gradient-b"/>
  </g>
</svg>
