<svg xmlns="http://www.w3.org/2000/svg" width="30" height="30" viewBox="0 0 30 30">
  <defs>
    <linearGradient id="money-gradient-a" x1="42.653%" x2="61.759%" y1="27.026%" y2="86.723%">
      <stop offset="0%" stop-color="#37A6DE"/>
      <stop offset="100%" stop-color="#1D70B6"/>
    </linearGradient>
  </defs>
  <path fill="url(#money-gradient-a)" d="M23,20 L23,19 L23,18 L25,18 L25,19 L25,21.96 C25,21.9654899 24.9999548,21.9709774 24.9998645,21.9764619 C24.9999548,21.9842972 25,21.9921433 25,22 C25,23.105 24.111,24.009 23,24.009 C22.7739526,24.009 22.5570953,23.925833 22.3550462,23.7933418 C21.1712466,23.3793935 18.6308746,22.4468638 16.9076487,21.9627266 C12.5192449,20.7298125 7.58160732,20 2,20 C1.44771525,20 1,19.5522847 1,19 C1,18.4477153 1.44771525,18 2,18 C7.77151768,18 12.8899991,18.7565423 17.4486013,20.0372734 C18.7980065,20.4163863 19.98897,20.8092951 21.1494112,21.2397949 C21.448478,20.5120859 22.1641619,20 23,20 Z M24,16 L2,16 C0.89571525,16 0,15.1042847 0,14 L0,2 C0,0.89571525 0.89571525,0 2,0 L24,0 C25.1042847,0 26,0.89571525 26,2 L26,14 C26,15.1042847 25.1042847,16 24,16 Z M24,14 L24,2 L2,2 L2,14 L24,14 Z M21,9 C20.4477153,9 20,8.55228475 20,8 C20,7.44771525 20.4477153,7 21,7 C21.5522847,7 22,7.44771525 22,8 C22,8.55228475 21.5522847,9 21,9 Z M5,9 C4.44771525,9 4,8.55228475 4,8 C4,7.44771525 4.44771525,7 5,7 C5.55228475,7 6,7.44771525 6,8 C6,8.55228475 5.55228475,9 5,9 Z M13,12 C10.790861,12 9,10.209139 9,8 C9,5.790861 10.790861,4 13,4 C15.209139,4 17,5.790861 17,8 C17,10.209139 15.209139,12 13,12 Z" transform="translate(2 4)"/>
</svg>
