<svg width="195" height="296" viewBox="0 0 195 296" version="1.1" xmlns="http://www.w3.org/2000/svg" xmlns:xlink="http://www.w3.org/1999/xlink">
<g id="Canvas" fill="none">
<g id="5ad0bbef91f6b29a2de1c271_oneport-pic">
<g id="Vector">
<path d="M 106.271 226.205C 106.071 226.564 105.75 226.894 105.282 227.175L 99.2547 232.612L 73.1396 256.461L 72.985 256.306L 32.4254 292.889C 31.7111 293.246 31.3539 293.603 30.6396 293.603C 29.9254 293.603 28.8539 293.246 28.1396 292.532C 27.0682 291.461 27.4254 289.318 28.4968 288.246L 68.6809 252.002L 68.4968 251.818L 154.925 172.889L 159.568 177.532L 106.271 226.205ZM 15.2678 141.18L 22.0682 138.246L 23.7598 135.427C 22.681 131.708 20.9865 123.919 20.6396 122.532C 14.5682 92.8891 25.2825 60.3891 47.7825 39.6748C 67.4254 21.8177 92.0682 16.4605 117.068 23.9605C 143.854 32.1748 163.854 54.3177 170.64 83.2463C 178.14 114.675 168.854 146.818 147.068 167.175L 142.425 162.175C 162.425 143.246 170.997 113.246 164.211 84.3177C 157.783 57.532 139.925 37.532 115.282 30.032C 92.4254 22.8891 70.2825 28.2463 52.4254 44.3177C 31.7111 63.2463 21.7111 93.6034 27.4254 121.103C 27.4254 121.672 28.105 124.28 28.7425 127.122L 31.7111 122.175L 41.7111 133.246L 41.7111 143.961L 52.7825 156.461L 79.9254 126.818L 89.2111 137.532L 69.2111 175.032L 78.8539 185.746C 83.1396 190.746 82.7825 198.246 77.7825 202.532C 72.7825 206.818 65.2825 206.461 60.9968 201.461L 51.3539 190.389L 11.7111 205.389L 2.42535 194.675L 35.2825 171.818L 23.8539 158.961L 13.4968 157.532L 3.85393 146.103L 9.10855 143.837C 8.12332 141.329 7.01898 138.813 6.71107 137.889C -3.64607 111.103 -1.86036 80.7463 10.9968 55.032C 23.8539 29.6748 45.9968 11.1034 73.1396 3.24626C 96.7111 -3.53945 122.068 0.389119 144.568 14.3177C 168.854 29.6748 186.354 54.6748 191.354 81.4605C 197.782 115.746 185.283 153.603 159.568 177.532L 154.925 172.532C 179.211 150.032 190.64 114.318 184.925 82.1748C 180.64 57.1748 164.211 33.6034 141.354 19.6748C 120.64 6.81769 97.0682 2.88912 75.2825 9.31769C 49.9254 16.8177 29.2111 33.9606 17.4254 57.532C 5.2825 81.8177 3.85393 110.032 13.1396 135.389C 13.433 136.269 14.2084 138.595 15.2678 141.18ZM 74.3696 225.587L 73.8539 225.032L 142.425 162.532L 146.711 167.532L 94.9407 214.966C 94.7677 215.399 94.5189 215.796 94.2111 216.103L 59.2111 247.175C 58.4968 247.532 58.1396 247.889 57.4254 247.889C 56.3539 247.889 55.2825 247.532 54.9254 246.818C 53.8539 245.746 54.2111 243.603 55.2825 242.532L 74.3696 225.587ZM 112.425 236.461C 114.211 235.389 115.997 235.746 117.068 236.818C 118.14 237.889 117.782 240.032 116.711 241.103L 72.0682 281.461C 71.3539 281.818 70.9968 282.175 70.2825 282.175C 69.5682 282.175 68.4968 281.818 67.7825 281.103C 66.7111 280.032 67.0682 277.889 68.1396 276.818L 112.425 236.461ZM 60.6396 283.246C 61.7111 282.175 63.8539 282.532 64.9254 283.603C 65.9968 284.675 65.6396 286.818 64.5682 287.889L 57.0682 294.318C 56.3539 294.675 55.9968 295.032 55.2825 295.032C 54.5682 295.032 53.4968 294.675 52.7825 293.961C 51.7111 292.889 52.0682 290.746 53.1396 289.675L 60.6396 283.246ZM 42.4254 261.103C 41.3539 261.103 40.6396 261.103 39.9254 260.032C 38.8539 258.961 39.2111 256.818 40.2825 255.746L 47.7825 249.318C 48.8539 248.246 50.9968 248.603 52.0682 249.675C 53.1396 250.746 52.7825 252.889 51.7111 253.961L 44.2111 260.389C 43.4968 260.746 43.1396 261.103 42.4254 261.103ZM 13.4968 198.246L 47.4254 185.746L 39.2111 176.461L 11.3539 195.746L 13.4968 198.246ZM 79.5682 135.746L 56.3539 160.746L 64.5682 170.032L 81.7111 138.246L 79.5682 135.746ZM 32.7825 132.175L 26.3539 143.246L 13.8539 148.603L 16.7111 151.818L 27.0682 153.246L 65.6396 197.532C 67.7825 199.675 71.3539 200.032 73.8539 197.889C 76.3539 195.746 76.7111 192.175 74.5682 189.675L 35.6396 146.103L 35.6396 135.389L 32.7825 132.175ZM 96.3539 119.318C 84.9253 119.318 75.6396 110.032 75.6396 98.6034C 75.6396 87.1748 84.9253 77.8891 96.3539 77.8891C 107.782 77.8891 117.068 87.1748 117.068 98.6034C 116.711 110.032 107.425 119.318 96.3539 119.318ZM 96.3539 83.6034C 88.1396 83.6034 81.3539 90.3891 81.3539 98.6034C 81.3539 106.818 88.1396 113.603 96.3539 113.603C 104.568 113.603 111.354 106.818 111.354 98.6034C 111.354 90.3891 104.568 83.6034 96.3539 83.6034ZM 127.425 230.746C 126.711 230.746 125.64 230.389 124.925 229.675C 123.497 228.246 123.854 226.103 124.925 225.032L 170.283 182.889C 171.711 181.818 173.854 181.818 174.925 182.889C 176.354 184.318 175.997 186.461 174.925 187.532L 129.568 229.675C 129.211 230.746 128.14 230.746 127.425 230.746ZM 183.497 176.103C 182.782 176.103 182.068 175.746 181.711 175.389C 180.283 174.318 179.925 172.175 180.997 170.746L 188.497 160.389C 189.568 158.961 191.711 158.603 193.14 159.675C 194.568 160.746 194.925 162.889 193.854 164.318L 186.354 174.675C 185.282 175.746 184.568 176.103 183.497 176.103Z" transform="translate(0 295.032) scale(1 -1)" fill="white"/>
</g>
</g>
</g>
</svg>

