<svg xmlns="http://www.w3.org/2000/svg" width="195" height="296" viewBox="0 0 195 296">
  <path fill="#FFF" d="M106.488167,226.743982 C106.28882,227.10362 105.968003,227.433484 105.5,227.714286 L99.4722508,233.151079 L73.3571429,257 L73.2025037,256.845361 L32.6428571,293.428571 C31.9285714,293.785714 31.5714286,294.142857 30.8571429,294.142857 C30.1428571,294.142857 29.0714286,293.785714 28.3571429,293.071429 C27.2857143,292 27.6428571,289.857143 28.7142857,288.785714 L68.89838,252.541237 L68.7142857,252.357143 L155.142857,173.428571 L159.785714,178.071429 L106.488167,226.743982 Z M15.4853334,141.719212 L22.2857143,138.785714 L23.977292,135.966418 C22.8984964,132.247546 21.2040173,124.458926 20.8571429,123.071429 C14.7857143,93.4285714 25.5,60.9285714 48,40.2142857 C67.6428571,22.3571429 92.2857143,17 117.285714,24.5 C144.071429,32.7142857 164.071429,54.8571429 170.857143,83.7857143 C178.357143,115.214286 169.071429,147.357143 147.285714,167.714286 L142.642857,162.714286 C162.642857,143.785714 171.214286,113.785714 164.428571,84.8571429 C158,58.0714286 140.142857,38.0714286 115.5,30.5714286 C92.6428571,23.4285714 70.5,28.7857143 52.6428571,44.8571429 C31.9285714,63.7857143 21.9285714,94.1428571 27.6428571,121.642857 C27.6428571,122.211742 28.3224813,124.8195 28.9600236,127.661865 L31.9285714,122.714286 L41.9285714,133.785714 L41.9285714,144.5 L53,157 L80.1428571,127.357143 L89.4285714,138.071429 L69.4285714,175.571429 L79.0714286,186.285714 C83.3571429,191.285714 83,198.785714 78,203.071429 C73,207.357143 65.5,207 61.2142857,202 L51.5714286,190.928571 L11.9285714,205.928571 L2.64285714,195.214286 L35.5,172.357143 L24.0714286,159.5 L13.7142857,158.071429 L4.07142857,146.642857 L9.32605095,144.376157 C8.34082121,141.868902 7.2364867,139.352317 6.92857143,138.428571 C-3.42857143,111.642857 -1.64285714,81.2857143 11.2142857,55.5714286 C24.0714286,30.2142857 46.2142857,11.6428571 73.3571429,3.78571429 C96.9285714,-3 122.285714,0.928571429 144.785714,14.8571429 C169.071429,30.2142857 186.571429,55.2142857 191.571429,82 C198,116.285714 185.5,154.142857 159.785714,178.071429 L155.142857,173.071429 C179.428571,150.571429 190.857143,114.857143 185.142857,82.7142857 C180.857143,57.7142857 164.428571,34.1428571 141.571429,20.2142857 C120.857143,7.35714286 97.2857143,3.42857143 75.5,9.85714286 C50.1428571,17.3571429 29.4285714,34.5 17.6428571,58.0714286 C5.5,82.3571429 4.07142857,110.571429 13.3571429,135.928571 C13.6505245,136.808716 14.4259137,139.134884 15.4853334,141.719212 Z M74.5870955,226.126762 L74.0714286,225.571429 L142.642857,163.071429 L146.928571,168.071429 L95.1581623,215.50505 C94.9851981,215.93887 94.7363569,216.335072 94.4285714,216.642857 L59.4285714,247.714286 C58.7142857,248.071429 58.3571429,248.428571 57.6428571,248.428571 C56.5714286,248.428571 55.5,248.071429 55.1428571,247.357143 C54.0714286,246.285714 54.4285714,244.142857 55.5,243.071429 L74.5870955,226.126762 Z M112.642857,237 C114.428571,235.928571 116.214286,236.285714 117.285714,237.357143 C118.357143,238.428571 118,240.571429 116.928571,241.642857 L72.2857143,282 C71.5714286,282.357143 71.2142857,282.714286 70.5,282.714286 C69.7857143,282.714286 68.7142857,282.357143 68,281.642857 C66.9285714,280.571429 67.2857143,278.428571 68.3571429,277.357143 L112.642857,237 Z M60.8571429,283.785714 C61.9285714,282.714286 64.0714286,283.071429 65.1428571,284.142857 C66.2142857,285.214286 65.8571429,287.357143 64.7857143,288.428571 L57.2857143,294.857143 C56.5714286,295.214286 56.2142857,295.571429 55.5,295.571429 C54.7857143,295.571429 53.7142857,295.214286 53,294.5 C51.9285714,293.428571 52.2857143,291.285714 53.3571429,290.214286 L60.8571429,283.785714 Z M42.6428571,261.642857 C41.5714286,261.642857 40.8571429,261.642857 40.1428571,260.571429 C39.0714286,259.5 39.4285714,257.357143 40.5,256.285714 L48,249.857143 C49.0714286,248.785714 51.2142857,249.142857 52.2857143,250.214286 C53.3571429,251.285714 53,253.428571 51.9285714,254.5 L44.4285714,260.928571 C43.7142857,261.285714 43.3571429,261.642857 42.6428571,261.642857 Z M13.7142857,198.785714 L47.6428571,186.285714 L39.4285714,177 L11.5714286,196.285714 L13.7142857,198.785714 Z M79.7857143,136.285714 L56.5714286,161.285714 L64.7857143,170.571429 L81.9285714,138.785714 L79.7857143,136.285714 Z M33,132.714286 L26.5714286,143.785714 L14.0714286,149.142857 L16.9285714,152.357143 L27.2857143,153.785714 L65.8571429,198.071429 C68,200.214286 71.5714286,200.571429 74.0714286,198.428571 C76.5714286,196.285714 76.9285714,192.714286 74.7857143,190.214286 L35.8571429,146.642857 L35.8571429,135.928571 L33,132.714286 Z M96.5714286,119.857143 C85.1428571,119.857143 75.8571429,110.571429 75.8571429,99.1428571 C75.8571429,87.7142857 85.1428571,78.4285714 96.5714286,78.4285714 C108,78.4285714 117.285714,87.7142857 117.285714,99.1428571 C116.928571,110.571429 107.642857,119.857143 96.5714286,119.857143 Z M96.5714286,84.1428571 C88.3571429,84.1428571 81.5714286,90.9285714 81.5714286,99.1428571 C81.5714286,107.357143 88.3571429,114.142857 96.5714286,114.142857 C104.785714,114.142857 111.571429,107.357143 111.571429,99.1428571 C111.571429,90.9285714 104.785714,84.1428571 96.5714286,84.1428571 Z M127.642857,231.285714 C126.928571,231.285714 125.857143,230.928571 125.142857,230.214286 C123.714286,228.785714 124.071429,226.642857 125.142857,225.571429 L170.5,183.428571 C171.928571,182.357143 174.071429,182.357143 175.142857,183.428571 C176.571429,184.857143 176.214286,187 175.142857,188.071429 L129.785714,230.214286 C129.428571,231.285714 128.357143,231.285714 127.642857,231.285714 Z M183.714286,176.642857 C183,176.642857 182.285714,176.285714 181.928571,175.928571 C180.5,174.857143 180.142857,172.714286 181.214286,171.285714 L188.714286,160.928571 C189.785714,159.5 191.928571,159.142857 193.357143,160.214286 C194.785714,161.285714 195.142857,163.428571 194.071429,164.857143 L186.571429,175.214286 C185.5,176.285714 184.785714,176.642857 183.714286,176.642857 Z" transform="rotate(180 97.456 148.055)"/>
</svg>
