<svg xmlns="http://www.w3.org/2000/svg" width="160" height="30" viewBox="0 0 160 30">
  <g fill="none" fill-rule="evenodd">
    <g fill="#FFF" fill-rule="nonzero" transform="translate(25 5)">
      <path d="M10.1,0.4 C12.7,0.4 14.9,1.3 16.7,3.1 C18.5,4.9 19.5,7.1 19.5,9.7 C19.5,12.3 18.6,14.5 16.7,16.3 C14.9,18.1 12.7,19 10.1,19 C7.5,19 5.3,18.1 3.5,16.3 C1.7,14.5 0.8,12.3 0.8,9.7 C0.8,7.1 1.7,4.9 3.5,3.1 C5.3,1.3 7.5,0.4 10.1,0.4 M10.1,3.5 C8.4,3.5 6.9,4.1 5.7,5.3 C4.5,6.5 3.9,8 3.9,9.7 C3.9,11.4 4.5,12.9 5.7,14.1 C6.9,15.3 8.4,15.9 10.1,15.9 C11.8,15.9 13.3,15.3 14.5,14.1 C15.7,12.9 16.3,11.4 16.3,9.7 C16.3,8 15.7,6.5 14.5,5.3 C13.2,4.1 11.8,3.5 10.1,3.5"/>
      <polygon points="22.3 .4 34.7 11.5 34.7 .4 37.9 .4 37.9 19 37.9 19 37.9 19.1 25.4 7.9 25.4 19 22.3 19"/>
      <polygon points="54.6 .4 54.6 3.5 45.2 3.5 45.2 8.2 54.6 8.2 54.6 11.3 45.2 11.3 45.2 15.9 54.6 15.9 54.6 19.1 42.1 19.1 42.1 .4"/>
      <path d="M61.7 12.8L61.7 19 58.6 19 58.6.3 67.9.3C69.6.3 71.1.9 72.3 2.1 73.5 3.3 74.1 4.8 74.1 6.5 74.1 8.2 73.5 9.7 72.3 10.9 71.1 12.1 69.6 12.7 67.9 12.7L61.7 12.7 61.7 12.8zM61.7 3.5L61.7 9.7 67.9 9.7C68.7 9.7 69.5 9.4 70.1 8.8 70.7 8.2 71 7.5 71 6.6 71 5.7 70.7 5 70.1 4.4 69.5 3.8 68.8 3.5 67.9 3.5L61.7 3.5zM85.2.4C87.8.4 90 1.3 91.8 3.1 93.6 4.9 94.6 7.1 94.6 9.7 94.6 12.3 93.7 14.5 91.8 16.3 90 18.1 87.8 19 85.2 19 82.6 19 80.4 18.1 78.6 16.3 76.8 14.5 75.9 12.3 75.9 9.7 75.9 7.1 76.8 4.9 78.6 3.1 80.4 1.3 82.6.4 85.2.4M85.2 3.5C83.5 3.5 82 4.1 80.8 5.3 79.6 6.5 79 8 79 9.7 79 11.4 79.6 12.9 80.8 14.1 82 15.3 83.5 15.9 85.2 15.9 86.9 15.9 88.4 15.3 89.6 14.1 90.8 12.9 91.4 11.4 91.4 9.7 91.4 8 90.8 6.5 89.6 5.3 88.4 4.1 86.9 3.5 85.2 3.5M109.6 19.1L106 12.9 100.7 12.9 100.7 19.1 97.6 19.1 97.6.4 106.9.4C108.6.4 110.1 1 111.3 2.2 112.5 3.4 113.1 4.9 113.1 6.6 113.1 7.9 112.7 9.1 112 10.1 111.3 11.1 110.4 11.9 109.3 12.3L113.1 19 109.6 19 109.6 19.1zM107 3.5L100.8 3.5 100.8 9.7 107 9.7C107.8 9.7 108.6 9.4 109.2 8.8 109.8 8.2 110.1 7.5 110.1 6.6 110.1 5.8 109.8 5 109.2 4.4 108.6 3.8 107.8 3.5 107 3.5z"/>
      <polygon points="115.1 .4 130.6 .4 130.6 3.5 124.4 3.5 124.4 19.1 121.3 19.1 121.3 3.5 115.1 3.5"/>
    </g>
    <path fill="#FFF" d="M7.5,14.5 L7.5,5 L8.5,5 L8.5,14.5 L18,14.5 L18,15.5 L8.5,15.5 L8.5,25 L7.5,25 L7.5,15.5 L-2,15.5 L-2,14.5 L7.5,14.5 Z" transform="rotate(45 8 15)"/>
  </g>
</svg>
