<svg xmlns="http://www.w3.org/2000/svg" width="130" height="130" viewBox="0 0 130 130">
  <g fill="none" fill-rule="evenodd">
    <path fill="#37A6DE" fill-rule="nonzero" d="M126.4,154.8 C112.4,154.8 101,143.4 101,129.4 C101,115.4 112.4,104 126.4,104 C140.4,104 151.8,115.4 151.8,129.4 C151.8,143.4 140.4,154.8 126.4,154.8 M126.4,107.1 C114.1,107.1 104,117.1 104,129.5 C104,141.8 114,151.9 126.4,151.9 C138.7,151.9 148.8,141.9 148.8,129.5 C148.8,117.1 138.7,107.1 126.4,107.1"/>
    <path fill="#37A6DE" fill-rule="nonzero" d="M192.422551,219.805195 L190.422551,217.605195 C218.322551,191.505195 229.922551,150.405195 220.622551,110.405195 C212.022551,73.5051952 186.822551,45.4051952 153.022551,35.2051952 C121.322551,25.6051952 90.3225508,32.7051952 65.7225508,55.1051952 C36.9225508,81.3051952 23.4225508,122.805195 31.1225508,160.805195 C31.4225508,162.505195 34.1225508,171.505195 35.7225508,176.905195 C36.3225508,179.105195 36.9225508,180.905195 37.0225508,181.605195 L34.1225508,182.405195 C33.9225508,181.705195 33.4225508,180.005195 32.8225508,177.805195 C31.1225508,172.005195 28.5225508,163.205195 28.2225508,161.405195 C20.2225508,122.405195 34.2225508,79.8051952 63.7225508,52.9051952 C89.2225508,29.7051952 121.222551,22.4051952 153.922551,32.3051952 C188.722551,42.9051952 214.722551,71.8051952 223.522551,109.705195 C233.122551,150.805195 221.122551,193.005195 192.422551,219.805195"/>
    <path fill="#37A6DE" fill-rule="nonzero" d="M209.015293,233.172748 L206.915293,230.972748 C239.915293,200.072748 256.015293,151.472748 247.915293,107.172748 C241.615293,72.7727478 219.215293,40.5727478 187.915293,21.2727478 C159.215293,3.47274777 126.815293,-1.52725223 96.8152928,7.17274777 C61.8152928,17.2727478 33.5152928,40.8727478 17.1152928,73.4727478 C0.515292769,106.472748 -1.58470723,145.372748 11.4152928,180.072748 C12.2152928,182.272748 16.9152928,193.672748 17.9152928,196.072748 L15.2152928,197.272748 C14.1152928,194.772748 9.51529277,183.472748 8.61529277,181.072748 C-4.68470723,145.572748 -2.48470723,105.872748 14.5152928,72.0727478 C31.3152928,38.6727478 60.2152928,14.5727478 96.0152928,4.27274777 C126.815293,-4.62725223 160.015293,0.472747772 189.515293,18.6727478 C221.515293,38.4727478 244.415293,71.3727478 250.815293,106.572748 C259.115293,151.972748 242.615293,201.572748 209.015293,233.172748"/>
  </g>
</svg>
