<svg xmlns="http://www.w3.org/2000/svg" width="100" height="210" viewBox="0 0 100 210">
  <g fill="none" fill-rule="evenodd">
    <path fill="#37A6DE" fill-rule="nonzero" d="M37.4225508,112.805195 L35.4225508,110.605195 C63.3225508,84.4051952 74.9225508,43.4051952 65.6225508,3.40519523 C57.1225508,-33.4948048 31.8225508,-61.5948048 -1.97744916,-71.7948048 C-33.6774492,-81.3948048 -64.6774492,-74.2948048 -89.2774492,-51.8948048 C-118.077449,-25.6948048 -131.577449,15.8051952 -123.877449,53.8051952 C-123.577449,55.5051952 -120.877449,64.5051952 -119.277449,69.9051952 C-118.677449,72.1051952 -118.077449,73.9051952 -117.977449,74.6051952 L-120.877449,75.4051952 C-121.077449,74.7051952 -121.577449,73.0051952 -122.177449,70.8051952 C-123.877449,65.0051952 -126.477449,56.2051952 -126.777449,54.4051952 C-134.777449,15.4051952 -120.777449,-27.1948048 -91.2774492,-54.0948048 C-65.7774492,-77.2948048 -33.7774492,-84.5948048 -1.07744916,-74.6948048 C33.7225508,-64.0948048 59.7225508,-35.1948048 68.6225508,2.70519523 C78.1225508,43.7051952 66.2225508,85.9051952 37.4225508,112.805195"/>
    <path fill="#37A6DE" fill-rule="nonzero" d="M-81.4968893,219.603111 C-81.8968893,219.603111 -82.2968893,219.403111 -82.5968893,219.103111 C-83.1968893,218.503111 -83.0968893,217.503111 -82.4968893,217.003111 L35.5031107,110.403111 C36.1031107,109.803111 37.1031107,109.903111 37.6031107,110.503111 C38.2031107,111.103111 38.1031107,112.103111 37.5031107,112.603111 L-80.4968893,219.203111 C-80.7968893,219.503111 -81.0968893,219.603111 -81.4968893,219.603111"/>
    <path fill="#37A6DE" fill-rule="nonzero" d="M53.9152928,126.172748 L51.8152928,123.972748 C84.8152928,93.0727478 100.915293,44.4727478 92.8152928,0.172747772 C86.5152928,-34.2272522 64.1152928,-66.4272522 32.8152928,-85.7272522 C4.11529277,-103.527252 -28.1847072,-108.527252 -58.1847072,-99.8272522 C-93.1847072,-89.7272522 -121.484707,-66.1272522 -137.884707,-33.5272522 C-154.484707,-0.527252228 -156.584707,38.3727478 -143.584707,73.0727478 C-142.784707,75.2727478 -138.084707,86.6727478 -137.084707,89.0727478 L-139.784707,90.2727478 C-140.884707,87.7727478 -145.484707,76.4727478 -146.384707,74.0727478 C-159.684707,38.5727478 -157.484707,-1.12725223 -140.484707,-34.9272522 C-123.684707,-68.3272522 -94.7847072,-92.4272522 -58.9847072,-102.727252 C-28.1847072,-111.627252 5.01529277,-106.527252 34.5152928,-88.3272522 C66.5152928,-68.5272522 89.4152928,-35.6272522 95.8152928,-0.427252228 C104.015293,44.9727478 87.6152928,94.6727478 53.9152928,126.172748"/>
    <rect width="232.107" height="3" x="-148.225" y="201.734" fill="#37A6DE" fill-rule="nonzero" transform="rotate(-42.313 -32.171 203.234)"/>
    <path fill="#37A6DE" fill-rule="nonzero" d="M13.5031107 196.803111C13.1031107 196.803111 12.7031107 196.603111 12.4031107 196.303111 11.8031107 195.703111 11.9031107 194.703111 12.5031107 194.203111L73.5031107 137.403111C74.1031107 136.803111 75.1031107 136.903111 75.6031107 137.503111 76.2031107 138.103111 76.1031107 139.103111 75.5031107 139.603111L14.5031107 196.403111C14.2031107 196.703111 13.8031107 196.803111 13.5031107 196.803111M-66.4968893 268.803111C-66.8968893 268.803111-67.2968893 268.603111-67.5968893 268.303111-68.1968893 267.703111-68.0968893 266.703111-67.4968893 266.203111L2.40311068 202.403111C3.00311068 201.803111 4.00311068 201.903111 4.50311068 202.503111 5.10311068 203.103111 5.00311068 204.103111 4.40311068 204.603111L-65.4968893 268.403111C-65.7968893 268.703111-66.1968893 268.803111-66.4968893 268.803111M88.5125 123.7125C88.2125 123.7125 87.9125 123.6125 87.6125 123.4125 86.9125 122.9125 86.8125 122.0125 87.3125 121.3125L97.3125 107.6125C97.8125 106.9125 98.7125 106.8125 99.4125 107.3125 100.1125 107.8125 100.2125 108.7125 99.7125 109.4125L89.7125 123.1125C89.4125 123.5125 88.9125 123.7125 88.5125 123.7125"/>
  </g>
</svg>
