<svg xmlns="http://www.w3.org/2000/svg" width="30" height="30" viewBox="0 0 30 30">
  <g fill="none" fill-rule="evenodd">
    <path fill="#F24458" fill-rule="nonzero" d="M7.19615242,3 L5.46410162,0 L20,0 C21.105,0 22,0.895 22,2 L22,3 L7.19615242,3 Z M4.88675135,3 L0,3 L0,2 C0,0.895 0.895,0 2,0 L3.15470054,0 L4.88675135,3 Z M6.61880215,6 L13.5470054,18 L2,18 C0.895,18 0,17.105 0,16 L0,6 L6.61880215,6 Z M8.92820323,6 L22,6 L22,16 C22,17.105 21.105,18 20,18 L15.8564065,18 L8.92820323,6 Z" transform="translate(4 6)"/>
    <path stroke="#F24458" stroke-linecap="round" stroke-linejoin="round" stroke-width="2" d="M8,2 L23,27.9807621"/>
  </g>
</svg>
