<svg xmlns="http://www.w3.org/2000/svg" width="30" height="30" viewBox="0 0 30 30">
  <path fill="#F24458" fill-rule="evenodd" d="M4.5,17.5 C3.11928813,17.5 2,16.3807119 2,15 C2,13.6192881 3.11928813,12.5 4.5,12.5 C5.88071187,12.5 7,13.6192881 7,15 C7,16.3807119 5.88071187,17.5 4.5,17.5 Z M14.5,17.5 C13.1192881,17.5 12,16.3807119 12,15 C12,13.6192881 13.1192881,12.5 14.5,12.5 C15.8807119,12.5 17,13.6192881 17,15 C17,16.3807119 15.8807119,17.5 14.5,17.5 Z M25.5,17.5 C24.1192881,17.5 23,16.3807119 23,15 C23,13.6192881 24.1192881,12.5 25.5,12.5 C26.8807119,12.5 28,13.6192881 28,15 C28,16.3807119 26.8807119,17.5 25.5,17.5 Z"/>
</svg>
