<svg xmlns="http://www.w3.org/2000/svg" width="30" height="30" viewBox="0 0 30 30">
  <path fill="#F24458" fill-rule="evenodd" d="M6,17.5 C4.61928813,17.5 3.5,16.3807119 3.5,15 C3.5,13.6192881 4.61928813,12.5 6,12.5 C7.38071187,12.5 8.5,13.6192881 8.5,15 C8.5,16.3807119 7.38071187,17.5 6,17.5 Z M15,17.5 C13.6192881,17.5 12.5,16.3807119 12.5,15 C12.5,13.6192881 13.6192881,12.5 15,12.5 C16.3807119,12.5 17.5,13.6192881 17.5,15 C17.5,16.3807119 16.3807119,17.5 15,17.5 Z M24,17.5 C22.6192881,17.5 21.5,16.3807119 21.5,15 C21.5,13.6192881 22.6192881,12.5 24,12.5 C25.3807119,12.5 26.5,13.6192881 26.5,15 C26.5,16.3807119 25.3807119,17.5 24,17.5 Z"/>
</svg>
