<svg xmlns="http://www.w3.org/2000/svg" width="30" height="30" viewBox="0 0 30 30">
  <path fill="#F24458" fill-rule="evenodd" d="M6.5638852,4 L23.4361148,4 C24.3276335,4 24.6509198,4.09282561 24.9768457,4.2671327 C25.3027716,4.4414398 25.5585602,4.69722837 25.7328673,5.0231543 C25.9071744,5.34908022 26,5.67236646 26,6.5638852 L26,23.4361148 C26,24.3276335 25.9071744,24.6509198 25.7328673,24.9768457 C25.5585602,25.3027716 25.3027716,25.5585602 24.9768457,25.7328673 C24.6509198,25.9071744 24.3276335,26 23.4361148,26 L6.5638852,26 C5.67236646,26 5.34908022,25.9071744 5.0231543,25.7328673 C4.69722837,25.5585602 4.4414398,25.3027716 4.2671327,24.9768457 C4.09282561,24.6509198 4,24.3276335 4,23.4361148 L4,6.5638852 C4,5.67236646 4.09282561,5.34908022 4.2671327,5.0231543 C4.4414398,4.69722837 4.69722837,4.4414398 5.0231543,4.2671327 C5.34908022,4.09282561 5.67236646,4 6.5638852,4 Z M13.32,15.214 L13.32,11.848 L15.642,11.848 C15.8100008,11.848 16.0139988,11.8539999 16.254,11.866 C16.4940012,11.8780001 16.7279989,11.9319995 16.956,12.028 C17.1840011,12.1240005 17.3759992,12.2829989 17.532,12.505 C17.6880008,12.7270011 17.766,13.0539978 17.766,13.486 C17.766,14.0980031 17.5890018,14.5389986 17.235,14.809 C16.8809982,15.0790013 16.3500035,15.214 15.642,15.214 L13.32,15.214 Z M16.218,9.4 L10.35,9.4 L10.35,22 L13.32,22 L13.32,17.662 L16.146,17.662 C16.3980013,17.662 16.6919983,17.6500001 17.028,17.626 C17.3640017,17.6019999 17.7119982,17.5450004 18.072,17.455 C18.4320018,17.3649995 18.7859983,17.2300009 19.134,17.05 C19.4820017,16.8699991 19.7909987,16.6240016 20.061,16.312 C20.3310014,15.9999984 20.5499992,15.6130023 20.718,15.151 C20.8860008,14.6889977 20.97,14.1280033 20.97,13.468 C20.97,12.6879961 20.8410013,12.0370026 20.583,11.515 C20.3249987,10.9929974 19.9800022,10.5760016 19.548,10.264 C19.1159978,9.95199844 18.6120029,9.73000066 18.036,9.598 C17.4599971,9.46599934 16.8540032,9.4 16.218,9.4 Z"/>
</svg>
