<svg width="30" height="30" viewBox="0 0 30 30" version="1.1" xmlns="http://www.w3.org/2000/svg" xmlns:xlink="http://www.w3.org/1999/xlink">
<title>plane-white</title>
<desc>Created using Figma</desc>
<g id="Canvas" transform="translate(-7104 1225)">
<clipPath id="clip-0" clip-rule="evenodd">
<path d="M 7104 -1225L 7134 -1225L 7134 -1195L 7104 -1195L 7104 -1225Z" fill="#FFFFFF"/>
</clipPath>
<g id="plane-white" clip-path="url(#clip-0)">
<g id="plane">
<g id="Group">
<g id="Subtract">
<use xlink:href="#path0_fill" transform="translate(7109 -1221)" fill="#FFFFFF"/>
<mask id="mask0_outline_ins">
<use xlink:href="#path0_fill" fill="white" transform="translate(7109 -1221)"/>
</mask>
<g mask="url(#mask0_outline_ins)">
<use xlink:href="#path1_stroke_2x" transform="translate(7109 -1221)" fill="#FFFFFF"/>
</g>
</g>
</g>
</g>
</g>
</g>
<defs>
<path id="path0_fill" fill-rule="evenodd" d="M 8 2C 8 0.895386 8.89551 0 10 0C 11.1045 0 12 0.895386 12 2L 12 8.40002L 20 14L 20 16L 12 13.4L 12 19.35L 15 21L 15 22L 12 22L 8 22L 5 22L 5 21L 8 19.35L 8 13.4L 0 16L 0 14L 8 8.40002L 8 2Z"/>
<path id="path1_stroke_2x" d="M 12 8.40002L 11 8.40002L 11 8.92068L 11.4265 9.21926L 12 8.40002ZM 20 14L 21 14L 21 13.4793L 20.5735 13.1808L 20 14ZM 20 16L 19.6909 16.951L 21 17.3765L 21 16L 20 16ZM 12 13.4L 12.3091 12.449L 11 12.0235L 11 13.4L 12 13.4ZM 12 19.35L 11 19.35L 11 19.9412L 11.5181 20.2262L 12 19.35ZM 15 21L 16 21L 16 20.4087L 15.4819 20.1238L 15 21ZM 15 22L 15 23L 16 23L 16 22L 15 22ZM 5 22L 4 22L 4 23L 5 23L 5 22ZM 5 21L 4.51808 20.1238L 4 20.4087L 4 21L 5 21ZM 8 19.35L 8.48192 20.2262L 9 19.9412L 9 19.35L 8 19.35ZM 8 13.4L 9 13.4L 9 12.0235L 7.69092 12.449L 8 13.4ZM 0 16L -1 16L -1 17.3765L 0.309083 16.951L 0 16ZM 0 14L -0.573461 13.1808L -1 13.4793L -1 14L 0 14ZM 8 8.40002L 8.57346 9.21926L 9 8.92068L 9 8.40002L 8 8.40002ZM 10 -1C 8.34326 -1 7 0.343061 7 2L 9 2C 9 1.44771 9.44775 1 10 1L 10 -1ZM 13 2C 13 0.343061 11.6567 -1 10 -1L 10 1C 10.5522 1 11 1.44771 11 2L 13 2ZM 13 8.40002L 13 2L 11 2L 11 8.40002L 13 8.40002ZM 20.5735 13.1808L 12.5735 7.58079L 11.4265 9.21926L 19.4265 14.8192L 20.5735 13.1808ZM 21 16L 21 14L 19 14L 19 16L 21 16ZM 11.6909 14.3511L 19.6909 16.951L 20.3091 15.049L 12.3091 12.449L 11.6909 14.3511ZM 13 19.35L 13 13.4L 11 13.4L 11 19.35L 13 19.35ZM 11.5181 20.2262L 14.5181 21.8762L 15.4819 20.1238L 12.4819 18.4738L 11.5181 20.2262ZM 14 21L 14 22L 16 22L 16 21L 14 21ZM 15 21L 12 21L 12 23L 15 23L 15 21ZM 12 21L 8 21L 8 23L 12 23L 12 21ZM 8 21L 5 21L 5 23L 8 23L 8 21ZM 6 22L 6 21L 4 21L 4 22L 6 22ZM 5.48192 21.8762L 8.48192 20.2262L 7.51808 18.4738L 4.51808 20.1238L 5.48192 21.8762ZM 7 13.4L 7 19.35L 9 19.35L 9 13.4L 7 13.4ZM 0.309083 16.951L 8.30908 14.3511L 7.69092 12.449L -0.309083 15.049L 0.309083 16.951ZM -1 14L -1 16L 1 16L 1 14L -1 14ZM 7.42654 7.58079L -0.573461 13.1808L 0.573461 14.8192L 8.57346 9.21926L 7.42654 7.58079ZM 7 2L 7 8.40002L 9 8.40002L 9 2L 7 2Z"/>
</defs>
</svg>
