<svg xmlns="http://www.w3.org/2000/svg" xmlns:xlink="http://www.w3.org/1999/xlink" width="30" height="30" viewBox="0 0 30 30">
  <defs>
    <linearGradient id="sad-gradient-a" x1="30.157%" x2="69.254%" y1="0%" y2="100%">
      <stop offset="0%" stop-color="#F24458"/>
      <stop offset="100%" stop-color="#FD9953"/>
    </linearGradient>
    <linearGradient id="sad-gradient-c" x1="100%" x2="65.214%" y1="0%" y2="80.43%">
      <stop offset="0%" stop-color="#9248AE" stop-opacity=".6"/>
      <stop offset="100%" stop-color="#BB6BD9" stop-opacity="0"/>
    </linearGradient>
    <linearGradient id="sad-gradient-d" x1="21.144%" x2="0%" y1="38.675%" y2="100%">
      <stop offset="0%" stop-color="#F2C94C" stop-opacity="0"/>
      <stop offset="100%" stop-color="#F2944C" stop-opacity=".3"/>
    </linearGradient>
    <linearGradient id="sad-gradient-e" x1="80.784%" y1="43.044%" y2="100%">
      <stop offset="0%" stop-color="#E6FF00" stop-opacity="0"/>
      <stop offset="100%" stop-color="#E6FF00" stop-opacity=".3"/>
    </linearGradient>
    <path id="sad-gradient-b" d="M12,24 C5.372583,24 0,18.627417 0,12 C0,5.372583 5.372583,0 12,0 C18.627417,0 24,5.372583 24,12 C24,18.627417 18.627417,24 12,24 Z M12,22 C17.5228475,22 22,17.5228475 22,12 C22,6.4771525 17.5228475,2 12,2 C6.4771525,2 2,6.4771525 2,12 C2,17.5228475 6.4771525,22 12,22 Z M16.5,13 C15.6715729,13 15,12.3284271 15,11.5 C15,10.6715729 15.6715729,10 16.5,10 C17.3284271,10 18,10.6715729 18,11.5 C18,12.3284271 17.3284271,13 16.5,13 Z M7.5,13 C6.67157288,13 6,12.3284271 6,11.5 C6,10.6715729 6.67157288,10 7.5,10 C8.32842712,10 9,10.6715729 9,11.5 C9,12.3284271 8.32842712,13 7.5,13 Z M8.47410798,17.1909898 C9.49362014,16.4500652 10.6753773,15.9999292 12,15.9999292 C13.3249111,15.9999292 14.5074047,16.4504601 15.5254516,17.1913967 C15.9719917,17.5163895 16.0705253,18.1418406 15.7455325,18.5883807 C15.4205396,19.0349209 14.7950886,19.1334545 14.3485484,18.8084616 C13.6494615,18.2996647 12.8627556,17.9999292 12,17.9999292 C11.1372893,17.9999292 10.350747,18.2995263 9.64989202,18.8088686 C9.20312711,19.1335524 8.57774438,19.0345861 8.25306059,18.5878212 C7.92837679,18.1410563 8.02734308,17.5156736 8.47410798,17.1909898 Z"/>
  </defs>
  <g fill="none" transform="translate(3 3)">
    <use fill="url(#sad-gradient-a)" fill-rule="evenodd" xlink:href="#sad-gradient-b"/>
    <use fill="url(#sad-gradient-c)" fill-rule="evenodd" style="mix-blend-mode:lighten" xlink:href="#sad-gradient-b"/>
    <use fill="url(#sad-gradient-d)" fill-rule="evenodd" style="mix-blend-mode:lighten" xlink:href="#sad-gradient-b"/>
    <use fill="url(#sad-gradient-e)" fill-rule="evenodd" style="mix-blend-mode:lighten" xlink:href="#sad-gradient-b"/>
  </g>
</svg>
