<?xml version="1.0" encoding="utf-8"?>
<!-- Generator: Adobe Illustrator 17.1.0, SVG Export Plug-In . SVG Version: 6.00 Build 0)  -->
<!DOCTYPE svg PUBLIC "-//W3C//DTD SVG 1.1//EN" "http://www.w3.org/Graphics/SVG/1.1/DTD/svg11.dtd">
<svg version="1.1" id="Слой_1" xmlns="http://www.w3.org/2000/svg" xmlns:xlink="http://www.w3.org/1999/xlink" x="0px" y="0px"
	 viewBox="0 0 200 70" enable-background="new 0 0 200 70" xml:space="preserve">
<path fill="#848484" d="M21.8,27.2v5.3H10c-1.9,0-2.6,0-2.6,1.2v0.8c0,1.1,0.4,1.3,1.2,1.4l7.2,1.3c5,0.9,7.8,1.4,7.8,6.9v1.9
	c0,6.1-3.2,8.2-9.4,8.2C6.7,54.3,0,53.5,0,53.5l0-5.1h12.9c2.8,0,4-0.5,4-2.3v-0.9c0-0.9-0.3-1.4-2.4-1.8l-9.3-1.7
	C2,41,0.3,40,0.3,35.8v-2c0-6.1,3.1-7.1,9.2-7.1C17,26.8,21.8,27.2,21.8,27.2z"/>
<rect x="27.9" y="27" fill="#848484" width="7.1" height="27"/>
<path fill="#848484" d="M27.7,19.6c0-2.1,1.7-3.7,3.7-3.7c2.1,0,3.8,1.6,3.8,3.7c0,2-1.7,3.6-3.8,3.6C29.4,23.2,27.7,21.6,27.7,19.6
	z"/>
<path fill="#848484" d="M40.1,54V27h7v2.3c2.1-1.2,4.8-2.5,7.1-2.5h3V33h-4.1c-1.8,0-3.9,0.6-6,1.5V54H40.1z"/>
<path fill="#848484" d="M75.6,26.9h-5.9c-6.1,0-9.5,3.6-9.5,8.6V46c0,6.6,3.1,8.3,9.2,8.2c7.4,0,13.5-0.8,13.5-0.8l0.1-4.8H70.4
	c-2.7,0-3.2-0.2-3.2-3.2v-1.6h17.1c0.4,0,0.5-0.1,0.5-0.6v-7.7C84.7,30.5,81.7,26.9,75.6,26.9z M77.9,38.6l-10.8,0.1v-2.3
	c0-3.8,1.5-4.1,4-4.1h3.1c2.5,0,3.7,0.4,3.7,4.1V38.6z"/>
<path fill="#848484" d="M89.3,54V27h7v1.9c2.1-1,4.8-2.2,7.1-2.2h1.3c5.9,0,8.9,1.5,8.9,8V54h-7.1V35.5c0-2.3-0.9-3-3.2-3h-1.1
	c-1.8,0-3.9,0.8-6,1.4V54H89.3z"/>
<path fill="#848484" d="M133.2,26.8c-7.5,0-12.7,0.7-12.7,0.7v4.7l11,0c2.8,0,3.8,0.8,3.9,3.5v1.8c-2.2-0.6-3.1-0.9-6.1-0.9h-2.6
	c-6,0-9,0.5-9,7.2v2.5c0,8.1,3,8,9,8h1.6c2.3,0,5-1.2,7.1-2.3v2h7.1V34.8C142.4,28.2,139.3,26.7,133.2,26.8z M135.3,47.6
	c-2.1,0.5-4.2,1.4-6,1.4h-1.5c-2.3,0-3.3-0.7-3.3-3v-1.8c0-2.8,0.8-3,3.3-3h2.2c1.8,0,3.1,0.2,5.3,0.4V47.6z"/>
<path fill="#848484" d="M162.7,2.4c5-2.4,10.8-2.9,16.2-2c8.3,1.4,15.5,7.5,18.7,15.2c0.9,1.8-0.6,3.6-1.8,4.9
	c-3.5,3.7-7.8,6.5-12.4,8.7c-6,2.8-12.7,2.7-19.2,2.6c-5.8-0.1-11.5-0.9-17.2-1.8c0.2-3.9,0.2-7.9,1.4-11.6
	C150.9,11.4,156.1,5.5,162.7,2.4z"/>
<path fill="#848484" d="M147.2,31c7.3,1.1,14.8,2.3,21.4,5.7c2.4,1.4,5.3,3.3,5.5,6.4c-0.1,4.9-4.6,9.7-9.7,9.1
	c-4-0.7-7.3-3.4-10-6.3C150.4,41.9,148.5,36.4,147.2,31z"/>
<path fill="#848484" d="M169.9,54.1c2.4-4.1,5.6-8.3,10.6-9.2c3.7-0.9,6.8,1.8,9.5,3.8c-2.9,1.8-5.9,3.8-9.3,4.7
	C177.2,54.4,173.5,54.2,169.9,54.1z"/>
<path fill="#848484" d="M198.9,18.6c3.4,10.2,0.6,22.6-8.3,29.2c-1.1-4.6-2-9.5-0.5-14.1C191.9,28.1,195.4,23.3,198.9,18.6z"/>
</svg>
