<svg xmlns="http://www.w3.org/2000/svg" width="106" height="30" viewBox="0 0 106 30">
  <path fill="#FFF" fill-rule="evenodd" d="M0.882352941,0 L105.117647,-1.11022302e-16 C105.604957,-2.00539711e-16 106,0.395042868 106,0.882352941 L106,29.1176471 C106,29.6049571 105.604957,30 105.117647,30 L0.882352941,30 C0.395042868,30 5.03767482e-16,29.6049571 4.4408921e-16,29.1176471 L-1.11022302e-16,0.882352941 C-1.70700575e-16,0.395042868 0.395042868,5.33606618e-16 0.882352941,4.4408921e-16 Z M97.0788758,11.0796894 L97.0788758,8.86578 L86.9141699,8.86578 C86.7520784,8.86578 86.6014902,8.89347952 86.4624052,8.95093036 C86.3233203,9.0073553 86.2041046,9.08737613 86.1016209,9.18894102 C86.0012288,9.29153181 85.9217516,9.41053714 85.8631895,9.5469829 C85.8056732,9.68342866 85.7763922,9.82808169 85.7763922,9.98094198 L85.7763922,17.9696874 C85.7763922,18.5421441 85.8820131,19.0263726 86.0943007,19.4213472 C86.3044967,19.8163218 86.5680261,20.1364051 86.8827974,20.382623 C87.1986144,20.6308927 87.5416209,20.8073489 87.911817,20.9150692 C88.2820131,21.0227896 88.6239739,21.0771627 88.9366536,21.0771627 L97.0788758,21.0771627 L97.0788758,18.8632533 L88.9533856,18.8632533 C88.6532549,18.8632533 88.4242353,18.7873361 88.2684183,18.632424 C88.1115556,18.4805896 88.0341699,18.2579676 88.0341699,17.9696874 L88.0341699,16.0871463 L96.063451,16.0871463 L96.063451,13.8557964 L88.0341699,13.8557964 L88.0341699,11.0796894 L97.0788758,11.0796894 Z M78.2298301,13.9750069 L78.2298301,15.9673202 C78.2298301,16.404357 78.158719,16.8013834 78.0175425,17.1563476 C77.8753203,17.5102858 77.6745359,17.8139546 77.4141438,18.066328 C77.1537516,18.3187013 76.8421176,18.5156756 76.4802876,18.6551991 C76.1184575,18.7936967 75.7179346,18.8634585 75.278719,18.8634585 L70.3040784,18.8634585 L70.3040784,11.0798946 L75.278719,11.0798946 C75.7179346,11.0798946 76.1184575,11.1486304 76.4802876,11.2881539 C76.8421176,11.4276774 77.1537516,11.6236258 77.4141438,11.8759992 C77.6745359,12.1283726 77.8753203,12.4330672 78.0175425,12.792135 C78.158719,13.1481251 78.2298301,13.5430997 78.2298301,13.9750069 Z M80.4865621,15.9673202 L80.4865621,13.9750069 C80.4865621,13.2363532 80.3547974,12.5541244 80.091268,11.9272946 C79.8287843,11.3004648 79.4659085,10.7598113 79.0026405,10.3094377 C78.5393725,9.85701229 77.9903529,9.50409995 77.3534902,9.24967477 C76.7166275,8.99319777 76.0253856,8.86598518 75.278719,8.86598518 L69.1851242,8.86598518 C69.0230327,8.86598518 68.8724444,8.8936847 68.7333595,8.95113555 C68.5942745,9.00756049 68.4740131,9.0865554 68.3725752,9.1891462 C68.272183,9.291737 68.1916601,9.41074232 68.1341438,9.54718808 C68.0766275,9.68260794 68.0473464,9.82828687 68.0473464,9.98012125 L68.0473464,19.96118 C68.0473464,20.1201957 68.0766275,20.2679265 68.1341438,20.4043722 C68.1916601,20.5397921 68.272183,20.6587974 68.3725752,20.7572846 C68.4740131,20.8567977 68.5942745,20.9347667 68.7333595,20.9922175 C68.8724444,21.0496684 69.0230327,21.0773679 69.1851242,21.0773679 L75.278719,21.0773679 C76.0253856,21.0773679 76.7166275,20.9491294 77.3534902,20.6947042 C77.9903529,20.4382272 78.5393725,20.0853149 79.0026405,19.6339153 C79.4659085,19.1825158 79.8287843,18.6449401 80.091268,18.0191362 C80.3547974,17.3953841 80.4865621,16.7111035 80.4865621,15.9673202 Z M60.0406536,21.0772653 L62.2973856,21.0772653 L62.2973856,8.86588259 L60.0406536,8.86588259 L60.0406536,21.0772653 Z M44.4460915,14.8697013 L44.4460915,11.0799972 L51.8939346,11.0799972 C51.9409935,11.0799972 51.9911895,11.0830749 52.0455686,11.0882045 C52.1009935,11.093334 52.153281,11.1128263 52.2024314,11.1436035 C52.2515817,11.1743807 52.2913203,11.2225984 52.3237386,11.2882565 C52.3551111,11.3528887 52.3718431,11.4482982 52.3718431,11.5734589 L52.3718431,12.9697197 C52.3718431,13.2600517 52.3247843,13.5165287 52.2327582,13.7401766 C52.1396863,13.9648504 52.0079216,14.1566952 51.8374641,14.315711 C51.6670065,14.4747267 51.4641307,14.6009134 51.2298824,14.694271 C50.995634,14.7886545 50.7362876,14.8471313 50.4528889,14.8697013 L44.4460915,14.8697013 Z M50.4528889,17.0836107 C50.7310588,17.0836107 51.0270065,17.0518076 51.3428235,16.9892272 C51.6575948,16.9276727 51.9702745,16.8261078 52.2808627,16.6865843 C52.5904052,16.5480867 52.8863529,16.3706047 53.1697516,16.155164 C53.4531503,15.9397233 53.7041307,15.6791427 53.9206013,15.3754739 C54.1381176,15.0718051 54.3106667,14.7209446 54.4372026,14.3249441 C54.5647843,13.9268918 54.6285752,13.4754923 54.6285752,12.9697197 L54.6285752,11.5570444 C54.6285752,11.2841529 54.5804706,10.9917691 54.4853072,10.6798931 C54.389098,10.3669912 54.233281,10.0756333 54.0168105,9.80581949 C53.7992941,9.53703159 53.5169412,9.31235775 53.1697516,9.13384976 C52.8225621,8.95431586 52.3979869,8.86506187 51.8939346,8.86506187 L43.3260915,8.86506187 C43.164,8.86506187 43.0134118,8.89378729 42.8753725,8.95021223 C42.7362876,9.00766308 42.6160261,9.08665799 42.5145882,9.18924879 C42.4131503,9.29183959 42.3336732,9.41084491 42.2761569,9.54729067 C42.2186405,9.68271053 42.1893595,9.82838946 42.1893595,9.98022384 L42.1893595,21.0774705 L44.4460915,21.0774705 L44.4460915,17.0836107 L46.9726275,17.0836107 L51.6774641,21.0774705 L55.1660915,21.0774705 L50.4528889,17.0836107 Z M37.4020131,11.0796894 L37.4020131,8.86578 L25.1886797,8.86578 L25.1886797,11.0796894 L30.1706405,11.0796894 L30.1706405,21.0771627 L32.4284183,21.0771627 L32.4284183,11.0796894 L37.4020131,11.0796894 Z M21.272549,17.4836122 C21.272549,17.0465754 21.2171242,16.6546786 21.1073203,16.3079217 C20.9975163,15.9621907 20.8490196,15.6554442 20.6607843,15.3887081 C20.472549,15.121972 20.2571242,14.8942205 20.0134641,14.7034016 C19.7708497,14.5125827 19.5146405,14.3556188 19.2458824,14.230458 C18.9760784,14.1052972 18.7062745,14.0129655 18.4343791,13.9544888 C18.1614379,13.8939602 17.904183,13.862157 17.6615686,13.8560016 L17.6437908,13.8560016 L12.4526797,13.8560016 C12.0249673,13.8560016 11.6903268,13.7328926 11.4508497,13.4856488 C11.2103268,13.238405 11.0900654,12.9019072 11.0900654,12.4761554 C11.0900654,12.056559 11.2103268,11.7180094 11.4508497,11.4635842 C11.6903268,11.2071072 12.0249673,11.0798946 12.4526797,11.0798946 L20.135817,11.0798946 L20.135817,8.86598518 L12.4526797,8.86598518 C12.0887582,8.86598518 11.6945098,8.92959148 11.2720261,9.05680407 C10.8505882,9.18504257 10.4584314,9.39227598 10.0966013,9.67953021 C9.73477124,9.96575854 9.43359477,10.3371372 9.19411765,10.7936663 C8.95359477,11.2512212 8.83333333,11.8123929 8.83333333,12.4761554 C8.83333333,13.1409437 8.95359477,13.7021154 9.19411765,14.1627481 C9.43359477,14.6223549 9.73477124,14.9937336 10.0966013,15.278936 C10.4584314,15.5620866 10.8505882,15.7672682 11.2720261,15.8955067 C11.6945098,16.0227193 12.0887582,16.0873515 12.4526797,16.0873515 L17.6437908,16.0873515 C17.8518954,16.0873515 18.0422222,16.1212064 18.2126797,16.1889163 C18.3831373,16.2576522 18.527451,16.3530616 18.6466667,16.4792483 C18.7658824,16.6044091 18.855817,16.7511139 18.9196078,16.9214146 C18.9844444,17.0917154 19.015817,17.2794565 19.015817,17.4836122 C19.015817,17.9032086 18.8955556,18.2386805 18.6560784,18.4879761 C18.4155556,18.7382977 18.0777778,18.8634585 17.6437908,18.8634585 L8.9379085,18.8634585 L8.9379085,21.0773679 L17.6437908,21.0773679 C17.887451,21.0773679 18.1457516,21.0496684 18.4207843,20.9922175 C18.695817,20.9347667 18.9666667,20.8465386 19.2322876,20.7285592 C19.4989542,20.6085279 19.7562092,20.4556676 20.005098,20.2679265 C20.2539869,20.0812112 20.4704575,19.8544856 20.6566013,19.5867236 C20.8416993,19.3199875 20.9901961,19.0122151 21.1031373,18.6623805 C21.2160784,18.3145977 21.272549,17.920649 21.272549,17.4836122 Z"/>
</svg>
