<svg xmlns="http://www.w3.org/2000/svg" width="150" height="150" viewBox="0 0 150 150">
  <defs>
    <linearGradient id="success-img-a" x1="50%" x2="50%" y1="0%" y2="100%">
      <stop offset="0%" stop-color="#F24458" stop-opacity=".05"/>
      <stop offset="100%" stop-color="#F24458" stop-opacity=".4"/>
    </linearGradient>
  </defs>
  <g fill="none">
    <path fill="#F24458" d="M78.8219178,38.5454545 C78.8219178,31.6165122 84.3421849,26 91.1506849,26 C97.9592466,26 103.479452,31.6165122 103.479452,38.5454545 L103.479452,74.9273982 L138,110.054545 L138,122.6 L103.479452,106.290909 L103.479452,141.104545 L103.479452,141.104545 C102.738772,148.829954 97.2584719,155.273513 89.7521378,157.244678 L64.0273973,164 L64.0273973,151.454545 L78.8219178,141.104545 L78.8219178,106.290909 L48,122.6 L48,110.054545 L78.8219178,74.9273982 L78.8219178,38.5454545 Z" transform="rotate(45 93 95)"/>
    <path fill="url(#success-img-a)" d="M31,45 C23.2680135,45 17,38.7319865 17,31 C17,23.2680135 23.2680135,17 31,17 C38.7319865,17 45,23.2680135 45,31 C45,38.7319865 38.7319865,45 31,45 Z M29,5 C29,3.8954305 29.8954305,3 31,3 C32.1045695,3 33,3.8954305 33,5 L33,11 C33,12.1045695 32.1045695,13 31,13 C29.8954305,13 29,12.1045695 29,11 L29,5 Z M29,51 C29,49.8954305 29.8954305,49 31,49 C32.1045695,49 33,49.8954305 33,51 L33,57 C33,58.1045695 32.1045695,59 31,59 C29.8954305,59 29,58.1045695 29,57 L29,51 Z M57,29 C58.1045695,29 59,29.8954305 59,31 C59,32.1045695 58.1045695,33 57,33 L51,33 C49.8954305,33 49,32.1045695 49,31 C49,29.8954305 49.8954305,29 51,29 L57,29 Z M11,29 C12.1045695,29 13,29.8954305 13,31 C13,32.1045695 12.1045695,33 11,33 L5,33 C3.8954305,33 3,32.1045695 3,31 C3,29.8954305 3.8954305,29 5,29 L11,29 Z M47.9697864,11.2017864 C48.750835,10.4207379 50.017165,10.4207379 50.7982136,11.2017864 C51.5792621,11.982835 51.5792621,13.249165 50.7982136,14.0302136 L46.5562136,18.2722136 C45.775165,19.0532621 44.508835,19.0532621 43.7277864,18.2722136 C42.9467379,17.491165 42.9467379,16.224835 43.7277864,15.4437864 L47.9697864,11.2017864 Z M15.4437864,43.7277864 C16.224835,42.9467379 17.491165,42.9467379 18.2722136,43.7277864 C19.0532621,44.508835 19.0532621,45.775165 18.2722136,46.5562136 L14.0302136,50.7982136 C13.249165,51.5792621 11.982835,51.5792621 11.2017864,50.7982136 C10.4207379,50.017165 10.4207379,48.750835 11.2017864,47.9697864 L15.4437864,43.7277864 Z M50.7982136,47.9697864 C51.5792621,48.750835 51.5792621,50.017165 50.7982136,50.7982136 C50.017165,51.5792621 48.750835,51.5792621 47.9697864,50.7982136 L43.7277864,46.5562136 C42.9467379,45.775165 42.9467379,44.508835 43.7277864,43.7277864 C44.508835,42.9467379 45.775165,42.9467379 46.5562136,43.7277864 L50.7982136,47.9697864 Z M18.2722136,15.4437864 C19.0532621,16.224835 19.0532621,17.491165 18.2722136,18.2722136 C17.491165,19.0532621 16.224835,19.0532621 15.4437864,18.2722136 L11.2017864,14.0302136 C10.4207379,13.249165 10.4207379,11.982835 11.2017864,11.2017864 C11.982835,10.4207379 13.249165,10.4207379 14.0302136,11.2017864 L18.2722136,15.4437864 Z"/>
  </g>
</svg>
