<svg xmlns="http://www.w3.org/2000/svg" width="92" height="50" viewBox="0 0 92 50">
  <g fill="#FFF" fill-rule="evenodd" transform="translate(0 13)">
    <polygon points="85.504 .001 85.504 .006 73.603 .006 73.603 .001 67.441 .001 67.441 .006 67.404 .006 67.404 23.964 73.119 23.964 73.119 23.953 73.335 23.953 73.603 23.953 73.603 14.46 73.603 9.336 73.603 6.213 85.504 6.213 85.504 9.336 85.504 14.46 85.504 23.953 85.972 23.953 85.972 23.964 86.241 23.964 91.689 23.964 91.689 .006 91.666 .006 91.666 .001"/>
    <polygon points="17.694 .001 17.694 6.212 17.961 6.212 23.86 6.212 23.86 5.67 23.86 .001"/>
    <polygon points="17.693 15.066 17.962 15.066 23.859 15.066 23.859 14.524 23.859 8.854 17.693 8.854"/>
    <polygon points="17.693 17.777 17.693 23.988 17.961 23.988 23.859 23.988 23.859 23.447 23.859 17.777"/>
    <polygon points="15.005 15.066 15.005 14.524 15.005 8.854 8.838 8.854 8.838 15.066 9.106 15.066"/>
    <polygon points="8.837 17.777 8.837 23.988 9.106 23.988 15.006 23.988 15.006 23.447 15.006 17.777"/>
    <polygon points="0 17.777 0 23.988 .269 23.988 6.167 23.988 6.167 23.447 6.167 17.777"/>
    <polygon points="33.242 0 33.242 6.206 33.78 6.206 33.78 6.207 39.4 6.207 39.4 0"/>
    <polygon points="31.08 .001 30.811 .001 25.462 .001 25.462 6.207 25.472 6.207 25.472 23.955 25.74 23.955 31.634 23.955 31.634 5.585 31.617 5.585 31.617 .001"/>
    <polygon points="57.812 .022 50.808 8.838 47.256 8.838 47.257 .022 41.026 .022 41.026 23.926 47.257 23.926 47.257 15.11 50.807 15.11 57.812 23.926 57.941 23.926 65.767 23.926 64.731 22.623 64.732 22.623 56.271 11.975 65.764 .022"/>
  </g>
</svg>
