<svg xmlns="http://www.w3.org/2000/svg" width="30" height="30" viewBox="0 0 30 30">
  <g fill="none" fill-rule="evenodd" transform="translate(4 4)">
    <path fill="#F24458" fill-rule="nonzero" d="M12.414,9.586 C13.195,10.367 13.195,11.633 12.414,12.414 C11.633,13.195 10.367,13.195 9.586,12.414 C9.042,11.87 6.542,7.996 5.078,5.699 C4.818,5.292 5.292,4.818 5.699,5.078 C7.996,6.542 11.87,9.041 12.414,9.586 Z"/>
    <path stroke="#F24458" stroke-linecap="round" stroke-width="2" d="M2.58,3.93 C0.971,5.841 0,8.306 0,11 C0,17.075 4.925,22 11,22 C17.075,22 22,17.075 22,11 C22,4.925 17.075,0 11,0 L11,4"/>
  </g>
</svg>
