<svg xmlns="http://www.w3.org/2000/svg" xmlns:xlink="http://www.w3.org/1999/xlink" width="30" height="30" viewBox="0 0 30 30">
  <defs>
    <polygon id="train-red-a" points="0 0 30 0 30 30 0 30"/>
  </defs>
  <g fill="none" fill-rule="evenodd">
    <mask id="train-red-b" fill="#fff">
      <use xlink:href="#train-red-a"/>
    </mask>
    <g mask="url(#train-red-b)">
      <path fill="#F24458" fill-rule="nonzero" d="M0,5 C0,2.79089 1.75537,0.642822 3.94922,0.380615 C5.65918,0.176147 7.77783,0 10,0 C12.2222,0 14.3408,0.176147 16.0508,0.380615 C18.2446,0.642822 20,2.79089 20,5 L20,17 C20,18.9456 18.6108,20.5668 16.7705,20.9259 L18,24 L16,24 L14.7998,21 L5.2002,21 L4,24 L2,24 L3.22949,20.9259 C1.38916,20.5668 0,18.9456 0,17 L0,5 Z M2,6 L2,10 C2,10.5522 2.44775,11 3,11 L9,11 L9,5 L3,5 C2.44775,5 2,5.44775 2,6 Z M17,5 L11,5 L11,11 L17,11 C17.5522,11 18,10.5522 18,10 L18,6 C18,5.44775 17.5522,5 17,5 Z M7,16 C7,14.8954 6.10449,14 5,14 C3.89551,14 3,14.8954 3,16 C3,17.1046 3.89551,18 5,18 C6.10449,18 7,17.1046 7,16 Z M15,18 C16.1045,18 17,17.1046 17,16 C17,14.8954 16.1045,14 15,14 C13.8955,14 13,14.8954 13,16 C13,17.1046 13.8955,18 15,18 Z" transform="translate(5 3)"/>
    </g>
  </g>
</svg>
