<svg xmlns="http://www.w3.org/2000/svg" width="30" height="30" viewBox="0 0 30 30">
  <g fill="#F24458" transform="translate(7 4)">
    <path d="M11.71 21L4.29 21C3.271 21 2.415 20.234 2.302 19.221L1.5 5 14.5 5 13.698 19.221C13.585 20.234 12.729 21 11.71 21zM6 9C5.44771525 9 5 9.44771525 5 10L5 16C5 16.5522847 5.44771525 17 6 17 6.55228475 17 7 16.5522847 7 16L7 10C7 9.44771525 6.55228475 9 6 9zM10 9C9.44771525 9 9 9.44771525 9 10L9 16C9 16.5522847 9.44771525 17 10 17 10.5522847 17 11 16.5522847 11 16L11 10C11 9.44771525 10.5522847 9 10 9zM15 3L1 3C.448 3 0 2.552 0 2 0 1.448.448 1 1 1L15 1C15.552 1 16 1.448 16 2 16 2.552 15.552 3 15 3z"/>
    <path d="M11,2 L5,2 L5,1 C5,0.448 5.448,0 6,0 L10,0 C10.552,0 11,0.448 11,1 L11,2 Z"/>
  </g>
</svg>
