<svg width="30" height="30" viewBox="0 0 30 30" version="1.1" xmlns="http://www.w3.org/2000/svg" xmlns:xlink="http://www.w3.org/1999/xlink">
<title>user-white</title>
<desc>Created using Figma</desc>
<g id="Canvas" transform="translate(-6999 1225)">
<clipPath id="clip-0" clip-rule="evenodd">
<path d="M 6999 -1225L 7029 -1225L 7029 -1195L 6999 -1195L 6999 -1225Z" fill="#FFFFFF"/>
</clipPath>
<g id="user-white" clip-path="url(#clip-0)">
<g id="icon">
<g id="Ellipse">
<mask id="mask0_outline_ins">
<use xlink:href="#path0_fill" fill="white" transform="translate(6999 -1225)"/>
</mask>
<g mask="url(#mask0_outline_ins)">
<use xlink:href="#path1_stroke_2x" transform="translate(6999 -1225)" fill="#FFFFFF"/>
</g>
</g>
<g id="Subtract">
<use xlink:href="#path2_fill" transform="translate(6999 -1225)" fill="#FFFFFF"/>
<mask id="mask1_outline_ins">
<use xlink:href="#path2_fill" fill="white" transform="translate(6999 -1225)"/>
</mask>
<g mask="url(#mask1_outline_ins)">
<use xlink:href="#path3_stroke_2x" transform="translate(6999 -1225)" fill="#FFFFFF"/>
</g>
</g>
</g>
</g>
</g>
<defs>
<path id="path0_fill" d="M 30 15C 30 23.2843 23.2843 30 15 30C 6.71573 30 0 23.2843 0 15C 0 6.71573 6.71573 0 15 0C 23.2843 0 30 6.71573 30 15Z"/>
<path id="path1_stroke_2x" d="M 28 15C 28 22.1797 22.1797 28 15 28L 15 32C 24.3888 32 32 24.3888 32 15L 28 15ZM 15 28C 7.8203 28 2 22.1797 2 15L -2 15C -2 24.3888 5.61116 32 15 32L 15 28ZM 2 15C 2 7.8203 7.8203 2 15 2L 15 -2C 5.61116 -2 -2 5.61116 -2 15L 2 15ZM 15 2C 22.1797 2 28 7.8203 28 15L 32 15C 32 5.61116 24.3888 -2 15 -2L 15 2Z"/>
<path id="path2_fill" fill-rule="evenodd" d="M 26.2544 24.917C 28.5859 22.2733 30 18.8019 30 15C 30 6.7157 23.2842 0 15 0C 6.71582 0 0 6.7157 0 15C 0 18.8019 1.41406 22.2733 3.74561 24.917C 4.80713 23.1514 6.82275 22.5587 8.6084 22.0337C 10.2046 21.5645 11.6167 21.1492 12 19.999L 12 17.999C 11.5498 17.776 10.2632 16.244 10.1279 15.047C 9.77393 15.02 9.21777 14.6949 9.0542 13.412C 8.96582 12.724 9.31592 12.3361 9.52783 12.214C 9.52783 12.214 9 11.104 9 10C 9 6.72095 10.7578 4 15 4C 17.2891 4 18 5.5 18 5.5C 20.0469 5.5 21 7.57202 21 10C 21 11.2111 20.4722 12.214 20.4722 12.214C 20.6841 12.3361 21.0342 12.723 20.9458 13.412C 20.7822 14.6949 20.2261 15.02 19.8721 15.047C 19.7368 16.244 18.4502 17.776 18 17.999L 18 19.999C 18.3833 21.1492 19.7954 21.5645 21.3916 22.0337C 23.1772 22.5587 25.1929 23.1514 26.2544 24.917ZM 22.4902 27.999L 7.50977 27.999C 9.71387 29.2717 12.272 30 15 30C 17.728 30 20.2861 29.2717 22.4902 27.999Z"/>
<path id="path3_stroke_2x" d="M 26.2544 24.917L 25.3974 25.4323L 26.1011 26.6027L 27.0044 25.5784L 26.2544 24.917ZM 3.74561 24.917L 2.99561 25.5784L 3.89894 26.6027L 4.60264 25.4323L 3.74561 24.917ZM 8.6084 22.0337L 8.32636 21.0743L 8.32631 21.0743L 8.6084 22.0337ZM 12 19.999L 12.9487 20.3152L 13 20.1613L 13 19.999L 12 19.999ZM 12 17.999L 13 17.999L 13 17.3784L 12.4439 17.103L 12 17.999ZM 10.1279 15.047L 11.1216 14.9347L 11.0287 14.1127L 10.2039 14.0499L 10.1279 15.047ZM 9.0542 13.412L 10.0462 13.2855L 10.046 13.2846L 9.0542 13.412ZM 9.52783 12.214L 10.027 13.0805L 10.8278 12.6192L 10.4309 11.7845L 9.52783 12.214ZM 18 5.5L 17.0964 5.92829L 17.3673 6.5L 18 6.5L 18 5.5ZM 20.4722 12.214L 19.5872 11.7483L 19.139 12.6001L 19.973 13.0805L 20.4722 12.214ZM 20.9458 13.412L 19.9539 13.2848L 19.9538 13.2855L 20.9458 13.412ZM 19.8721 15.047L 19.7961 14.0499L 18.9713 14.1127L 18.8784 14.9347L 19.8721 15.047ZM 18 17.999L 17.5561 17.103L 17 17.3784L 17 17.999L 18 17.999ZM 18 19.999L 17 19.999L 17 20.1613L 17.0513 20.3152L 18 19.999ZM 21.3916 22.0337L 21.6737 21.0743L 21.6736 21.0743L 21.3916 22.0337ZM 7.50977 27.999L 7.50977 26.999L 3.77814 26.999L 7.00972 28.865L 7.50977 27.999ZM 22.4902 27.999L 22.9903 28.865L 26.2219 26.999L 22.4902 26.999L 22.4902 27.999ZM 29 15C 29.0186 18.6097 27.7359 21.7466 25.5044 24.2555L 27.0044 25.5784C 29.436 22.8001 30.9814 18.9941 31 15L 29 15ZM 15 1C 22.7319 1 29 7.26799 29 15L 31 15C 31 6.16341 23.8365 -1 15 -1L 15 1ZM 1 15C 1 7.26799 7.2681 1 15 1L 15 -1C 6.16354 -1 -1 6.16341 -1 15L 1 15ZM 4.4956 24.2555C 2.26408 21.7466 0.981355 18.6097 1 15L -1 15C -0.981355 18.9941 0.564047 22.8001 2.99561 25.5784L 4.4956 24.2555ZM 8.32631 21.0743C 6.62241 21.5753 4.18445 22.2463 2.88857 24.4017L 4.60264 25.4323C 5.42981 24.0564 7.0231 23.5421 8.89048 22.9931L 8.32631 21.0743ZM 11.0513 19.6829C 10.9764 19.9075 10.788 20.1344 10.3047 20.3809C 9.78877 20.6488 9.12443 20.8397 8.32636 21.0743L 8.89044 22.9931C 9.68856 22.7585 10.5284 22.5071 11.2134 22.1625C 11.931 21.7965 12.6403 21.2407 12.9487 20.3152L 11.0513 19.6829ZM 11 17.999L 11 19.999L 13 19.999L 13 17.999L 11 17.999ZM 9.13425 15.1593C 9.2303 16.0093 9.70197 16.8589 10.1283 17.4642C 10.3491 17.7762 10.6046 18.0844 10.8154 18.3047C 11.0118 18.5092 11.2775 18.7571 11.5561 18.8951L 12.4439 17.103C 12.4974 17.1294 12.4335 17.1022 12.2578 16.9193C 12.0964 16.7523 11.9375 16.5608 11.7634 16.3124C 11.4001 15.7966 11.1608 15.2817 11.1216 14.9347L 9.13425 15.1593ZM 8.06223 13.5385C 8.15945 14.301 8.38812 14.9038 8.75075 15.3399C 9.1249 15.7898 9.60099 16.0097 10.0519 16.0441L 10.2039 14.0499C 10.3009 14.0573 10.3219 14.1012 10.2886 14.0611C 10.2437 14.0072 10.1125 13.8059 10.0462 13.2855L 8.06223 13.5385ZM 9.02869 11.3475C 8.4935 11.6558 7.91875 12.4215 8.06235 13.5394L 10.046 13.2846C 10.0275 13.1402 10.058 13.0768 10.0658 13.0617C 10.0721 13.0497 10.077 13.0447 10.076 13.0457C 10.0755 13.0462 10.0725 13.0494 10.0659 13.0546C 10.0597 13.0595 10.0472 13.0689 10.027 13.0805L 9.02869 11.3475ZM 8 10C 8.00684 10.6688 8.16839 11.373 8.31083 11.8237C 8.38571 12.0582 8.46558 12.2688 8.51943 12.401C 8.54817 12.4713 8.57481 12.533 8.59119 12.5699C 8.60026 12.5903 8.60873 12.609 8.61351 12.6194C 8.61634 12.6255 8.61916 12.6316 8.62061 12.6347C 8.62155 12.6367 8.62258 12.6389 8.62306 12.6399C 8.6234 12.6406 8.62382 12.6415 8.624 12.6419C 8.62414 12.6422 8.62432 12.6426 8.62439 12.6427C 8.62445 12.6428 8.62454 12.643 8.62457 12.6431C 8.62466 12.6433 8.62474 12.6434 9.52783 12.214C 10.4309 11.7845 10.431 11.7847 10.4311 11.7849C 10.4311 11.7849 10.4312 11.7851 10.4312 11.7852C 10.4312 11.7851 10.4316 11.7859 10.4315 11.7857C 10.4314 11.7856 10.4319 11.7867 10.4318 11.7865C 10.4319 11.7866 10.4321 11.787 10.432 11.7869C 10.4315 11.7857 10.4313 11.7854 10.4303 11.7831C 10.4274 11.7767 10.4245 11.7704 10.4191 11.7583C 10.4066 11.7302 10.392 11.6966 10.3713 11.6456C 10.3262 11.5352 10.2741 11.3993 10.217 11.2183C 10.0955 10.838 9.99316 10.4352 10 10L 8 10ZM 15 3C 12.6534 3 10.8581 3.76118 9.66202 5.10571C 8.484 6.42999 8 8.19369 8 10L 10 10C 10 8.52726 10.3949 7.29096 11.1563 6.435C 11.8998 5.59929 13.1044 5 15 5L 15 3ZM 18 5.5C 18.9036 5.07171 18.9034 5.07116 18.9031 5.07059C 18.903 5.0704 18.9027 5.06983 18.9026 5.06944C 18.9024 5.06902 18.9018 5.06785 18.9014 5.06702C 18.901 5.0661 18.8998 5.0636 18.8989 5.06175C 18.8978 5.05953 18.895 5.05394 18.8928 5.04951C 18.8899 5.04361 18.883 5.03013 18.8769 5.01844C 18.8678 5.00109 18.8483 4.96548 18.8289 4.93192C 18.7968 4.87717 18.7327 4.77576 18.6615 4.67691C 18.5354 4.50514 18.2875 4.22063 17.9871 3.97234C 17.3534 3.46006 16.3836 3 15 3L 15 5C 15.9054 5 16.4357 5.28994 16.7297 5.52766C 16.8931 5.65437 16.966 5.74486 17.0448 5.85434C 17.076 5.89611 17.0853 5.91189 17.1011 5.93918C 17.1055 5.94663 17.1084 5.95249 17.106 5.94787C 17.1063 5.94857 17.1028 5.94167 17.103 5.94189C 17.1037 5.94348 17.0997 5.9353 17.1001 5.93608C 17.1006 5.9372 17.0981 5.93187 17.0983 5.93243C 17.0986 5.93308 17.0972 5.9301 17.0974 5.93042C 17.0972 5.93008 17.097 5.92954 17.0969 5.92937C 17.0966 5.92883 17.0964 5.92829 18 5.5ZM 22 10C 22 8.67655 21.7435 7.35319 21.1245 6.32406C 20.4798 5.25225 19.4293 4.5 18 4.5L 18 6.5C 18.6175 6.5 19.0671 6.78376 19.4107 7.35495C 19.7799 7.96883 20 8.89547 20 10L 22 10ZM 20.4722 12.214C 21.3571 12.6797 21.3572 12.6795 21.3573 12.6793C 21.3574 12.6792 21.3575 12.679 21.3576 12.6788C 21.3577 12.6786 21.3579 12.6782 21.3581 12.6778C 21.3583 12.6774 21.3589 12.6763 21.3593 12.6755C 21.3599 12.6744 21.3612 12.6719 21.3623 12.6698C 21.3639 12.6667 21.3672 12.6601 21.3704 12.6539C 21.3755 12.6437 21.385 12.6247 21.3948 12.6045C 21.4119 12.5693 21.4405 12.508 21.4706 12.4397C 21.5258 12.3135 21.6093 12.1057 21.6862 11.8729C 21.8303 11.4311 21.9932 10.7223 22 10L 20 10C 20.0068 10.4888 19.9058 10.8869 19.7859 11.2493C 19.7309 11.4187 19.6825 11.5373 19.6387 11.6371C 19.6193 11.6816 19.6067 11.7082 19.5949 11.7325C 19.5902 11.7422 19.5884 11.7459 19.5858 11.751C 19.5851 11.7524 19.5847 11.7531 19.5851 11.7524C 19.585 11.7526 19.5859 11.7509 19.5858 11.751C 19.5856 11.7513 19.5865 11.7496 19.5864 11.7498C 19.5863 11.75 19.5869 11.749 19.5868 11.7491C 19.5869 11.7489 19.587 11.7487 19.587 11.7487C 19.5871 11.7485 19.5872 11.7483 20.4722 12.214ZM 21.9377 13.5392C 22.0812 12.4202 21.5062 11.6556 20.9713 11.3475L 19.973 13.0805C 19.953 13.069 19.9406 13.0598 19.9345 13.0549C 19.9279 13.0497 19.9249 13.0465 19.9244 13.046C 19.9234 13.0449 19.9281 13.0498 19.9343 13.0616C 19.9419 13.0762 19.9726 13.1395 19.9539 13.2848L 21.9377 13.5392ZM 19.9481 16.0441C 20.399 16.0097 20.8751 15.7898 21.2492 15.3399C 21.6119 14.9038 21.8405 14.301 21.9378 13.5385L 19.9538 13.2855C 19.8875 13.8059 19.7563 14.0072 19.7114 14.0611C 19.6781 14.1012 19.6991 14.0573 19.7961 14.0499L 19.9481 16.0441ZM 18.4439 18.8951C 18.7225 18.7571 18.9882 18.5092 19.1846 18.3047C 19.3954 18.0844 19.6509 17.7762 19.8717 17.4642C 20.298 16.8589 20.7697 16.0093 20.8657 15.1593L 18.8784 14.9347C 18.8392 15.2817 18.5999 15.7966 18.2366 16.3124C 18.0625 16.5608 17.9036 16.7523 17.7422 16.9193C 17.5665 17.1022 17.5026 17.1294 17.5561 17.103L 18.4439 18.8951ZM 19 19.999L 19 17.999L 17 17.999L 17 19.999L 19 19.999ZM 21.6736 21.0743C 20.8756 20.8397 20.2112 20.6488 19.6953 20.3809C 19.212 20.1344 19.0236 19.9075 18.9487 19.6829L 17.0513 20.3152C 17.3597 21.2407 18.069 21.7965 18.7866 22.1625C 19.4716 22.5071 20.3114 22.7585 21.1096 22.9931L 21.6736 21.0743ZM 27.1114 24.4017C 25.8156 22.2463 23.3776 21.5753 21.6737 21.0743L 21.1095 22.9931C 22.9769 23.5421 24.5702 24.0564 25.3974 25.4323L 27.1114 24.4017ZM 7.50977 28.999L 22.4902 28.999L 22.4902 26.999L 7.50977 26.999L 7.50977 28.999ZM 15 29C 12.4102 29.0096 10.1038 28.3509 8.00981 27.133L 7.00972 28.865C 9.32398 30.1926 12.1337 30.9904 15 31L 15 29ZM 21.9902 27.133C 19.8962 28.3509 17.5898 29.0096 15 29L 15 31C 17.8663 30.9904 20.676 30.1926 22.9903 28.865L 21.9902 27.133Z"/>
</defs>
</svg>
