<svg xmlns="http://www.w3.org/2000/svg" width="30" height="30" viewBox="0 0 30 30">
  <path fill="#FFF" fill-rule="evenodd" d="M23.7774192,17.5227154 C23.7774192,17.5227154 25.5965503,19.3329574 26.0465519,20.1706335 C26.0589269,20.1887699 26.0645519,20.2023723 26.0668019,20.2103069 C26.2501775,20.5197597 26.2951777,20.7623344 26.2051774,20.9414316 C26.0533019,21.237282 25.5391751,21.385774 25.3647995,21.3982428 L22.1495386,21.3982428 C21.9256629,21.3982428 21.4599113,21.3392994 20.8929094,20.9448322 C20.4597829,20.6399135 20.0289065,20.1377612 19.6115301,19.6469442 C18.9882779,18.9180866 18.4494011,18.2855788 17.9037743,18.2855788 C17.834024,18.2855788 17.7665238,18.2969141 17.7012736,18.3195846 C17.2883972,18.4510737 16.7641454,19.0439081 16.7641454,20.6229106 C16.7641454,21.1171282 16.3771441,21.3982428 16.1060182,21.3982428 L14.6333882,21.3982428 C14.1316365,21.3982428 11.5193776,21.2214126 9.20299478,18.7605265 C6.36461016,15.7476128 3.81535153,9.70364918 3.79060144,9.65037343 C3.63197591,9.25930676 3.96497703,9.04620377 4.32497825,9.04620377 L7.57173926,9.04620377 C8.00711573,9.04620377 8.14886621,9.31144898 8.24786655,9.54948956 C8.36261693,9.82266947 8.78786838,10.9153891 9.48537074,12.1429984 C10.6148746,14.1402722 11.3090019,14.9530107 11.8636288,14.9530107 C11.9682542,14.9530107 12.0672545,14.9269396 12.1606298,14.8736639 C12.8851323,14.4723954 12.7501318,11.8652843 12.7163817,11.3279927 C12.7163817,11.2237083 12.7152567,10.163861 12.3440054,9.65150695 C12.0785045,9.28424435 11.626253,9.14142 11.3528771,9.08927778 C11.4260023,8.98272628 11.5812528,8.81949845 11.7803785,8.7231487 C12.2765052,8.47377285 13.1731332,8.4375 14.0630112,8.4375 L14.5568879,8.4375 C15.5221412,8.45110232 15.771892,8.51344628 16.1228932,8.60299488 C16.8293956,8.77302386 16.8428957,9.23436918 16.7810205,10.805437 C16.7630204,11.2543135 16.7438953,11.7598664 16.7438953,12.3549678 C16.7438953,12.4819228 16.7382703,12.6236136 16.7382703,12.7675715 C16.7168952,13.5735089 16.6887701,14.4814637 17.2535221,14.8543939 C17.3255223,14.899735 17.4098976,14.9246725 17.4976479,14.9246725 C17.6933986,14.9246725 18.2795255,14.9246725 19.8691559,12.1758706 C20.5666583,10.9618637 21.1066601,9.53021961 21.1437852,9.42253459 C21.1752853,9.36245768 21.2697857,9.19356222 21.3845361,9.12555063 C21.4722864,9.07114135 21.5892868,9.06207314 21.650037,9.06207314 L25.4694249,9.06207314 C25.8856763,9.06207314 26.1680523,9.12555063 26.2231775,9.28424435 C26.3154278,9.54155488 26.2051774,10.3270888 24.4614215,12.7029605 C24.1677955,13.0985612 23.9101696,13.4408863 23.6840438,13.7401373 C22.1034135,15.8303603 22.1034135,15.9357782 23.7774192,17.5227154 L23.7774192,17.5227154 Z"/>
</svg>
