<svg xmlns="http://www.w3.org/2000/svg" width="30" height="30" viewBox="0 0 30 30">
  <g fill="#F24458" transform="translate(0 5)">
    <path d="M15,7 C11.416,7 8.166,8.458 5.812,10.812 L9.346,14.346 C10.794,12.897 12.794,12 15,12 C17.206,12 19.206,12.897 20.654,14.346 L24.188,10.812 C21.834,8.458 18.584,7 15,7 Z"/>
    <path d="M10.759 15.759L15 20 19.241 15.759C18.154 14.673 16.654 14 15 14 13.346 14 11.846 14.673 10.759 15.759zM15 5C19.136 5 22.886 6.682 25.602 9.398L29.142 5.858C25.523 2.239 20.523 0 15 0 9.477 0 4.477 2.239.858 5.858L4.398 9.398C7.114 6.682 10.864 5 15 5z"/>
  </g>
</svg>
